<svg xmlns="http://www.w3.org/2000/svg" version="1.1" xmlns:xlink="http://www.w3.org/1999/xlink" xmlns:svgjs="http://svgjs.dev/svgjs" width="1500" height="1500" viewBox="0 0 1500 1500"><rect width="1500" height="1500" fill="#000000"></rect><g transform="matrix(0.6666666666666666,0,0,0.6666666666666666,249.39393939393938,438.5856950067477)"><svg viewBox="0 0 396 247" data-background-color="#ffffff" preserveAspectRatio="xMidYMid meet" height="935" width="1500" xmlns="http://www.w3.org/2000/svg" xmlns:xlink="http://www.w3.org/1999/xlink"><g id="tight-bounds" transform="matrix(1,0,0,1,0.2400000000000091,-0.09999999999999432)"><svg viewBox="0 0 395.52 247.2" height="247.2" width="395.52"><g><svg></svg></g><g><svg viewBox="0 0 395.52 247.2" height="247.2" width="395.52"><g transform="matrix(1,0,0,1,109.92728483962783,47.215199999999996)"><svg viewBox="0 0 175.66543032074432 152.7696" height="152.7696" width="175.66543032074432"><g><svg viewBox="0 0 244.43136 212.57273571968318" height="152.7696" width="175.66543032074432"><g transform="matrix(1,0,0,1,0,139.04097888128314)"><svg viewBox="0 0 244.43136 73.53175683840004" height="73.53175683840004" width="244.43136"><g id="textblocktransform"><svg viewBox="0 0 244.43136 73.53175683840004" height="73.53175683840004" width="244.43136" id="textblock"><g><svg viewBox="0 0 244.43136 58.7301173332913" height="58.7301173332913" width="244.43136"><g transform="matrix(1,0,0,1,0,0)"><svg width="244.43136" viewBox="-0.5776078692816903 -31.82125682146808 202.50570006668954 48.656570020783434" height="58.7301173332913" data-palette-color="#a3c0c4"><path d="M18.629 10.216v0c-0.659 0.138-1.058-0.125-1.198-0.791v0c-0.118-0.561-0.044-1.2 0.22-1.916v0c0.545-1.491 1.02-2.762 1.426-3.815 0.398-1.058 0.707-1.886 0.929-2.484v0c0.676-6.151 0.538-11.493-0.414-16.027v0c-0.62-2.949-1.506-5.191-2.661-6.727-1.154-1.536-2.425-2.157-3.815-1.865v0c-1.253 0.263-2.487 0.952-3.704 2.065-1.222 1.122-2.346 2.516-3.372 4.183-1.032 1.668-1.903 3.459-2.611 5.372v0c-0.583 1.505-0.98 2.938-1.192 4.297-0.218 1.361-0.233 2.488-0.045 3.382v0c0.313 1.488 1.131 2.092 2.455 1.814v0c0.861-0.181 1.745-0.66 2.651-1.436 0.912-0.784 1.86-1.781 2.847-2.99v0c0.226-0.252 0.405-0.392 0.535-0.419v0c0.065-0.014 0.105 0.012 0.118 0.078v0c0.027 0.13-0.029 0.35-0.168 0.658v0c-0.326 0.586-0.848 1.265-1.565 2.036-0.722 0.778-1.49 1.485-2.303 2.119-0.82 0.636-1.576 1.026-2.268 1.171v0c-1.227 0.258-2.285 0.034-3.176-0.671-0.892-0.712-1.474-1.714-1.745-3.006v0c-0.202-0.959-0.201-1.944 0.003-2.953v0c0.247-1.128 0.618-2.279 1.113-3.453 0.496-1.174 1.099-2.37 1.811-3.589v0c0.967-1.654 2.052-3.153 3.255-4.496 1.203-1.343 2.453-2.46 3.751-3.353 1.296-0.899 2.574-1.481 3.833-1.745v0c2.088-0.439 3.787 0.209 5.098 1.943 1.316 1.726 2.291 4.093 2.923 7.101v0c0.307 1.461 0.531 2.981 0.672 4.559 0.14 1.572 0.192 3.052 0.157 4.443-0.041 1.392-0.167 2.576-0.377 3.553v0c1.168-2.35 2.429-4.748 3.781-7.191 1.353-2.444 2.753-4.778 4.2-7.004 1.455-2.22 2.929-4.25 4.422-6.089 1.501-1.835 2.984-3.338 4.448-4.511 1.465-1.166 2.859-1.888 4.183-2.167v0c0.763-0.16 1.221 0.121 1.374 0.846v0c0.133 0.633-0.061 1.607-0.582 2.922v0c-0.165 0.348-0.349 0.543-0.551 0.586v0c-0.228 0.048-0.367-0.045-0.417-0.281v0c-0.034-0.163 0.002-0.396 0.109-0.697v0c0.045-0.112 0.095-0.276 0.152-0.492 0.062-0.224 0.076-0.418 0.042-0.581v0c-0.056-0.267-0.248-0.435-0.576-0.502v0c-0.255-0.049-0.563-0.035-0.921 0.04v0c-1.625 0.341-3.612 1.985-5.964 4.932v0c-1.171 1.493-2.347 3.095-3.526 4.808-1.178 1.719-2.269 3.433-3.272 5.143-1.008 1.717-1.898 3.321-2.668 4.811-0.775 1.498-1.369 2.757-1.781 3.777v0c-0.222 0.564-0.455 1.175-0.698 1.833-0.245 0.651-0.496 1.351-0.755 2.1v0l-0.825 2.248c-0.09 0.707-0.197 1.462-0.321 2.264-0.124 0.803-0.279 1.673-0.463 2.611v0c-0.203 1.01-0.55 1.825-1.039 2.446-0.495 0.628-1.006 0.998-1.535 1.11zM30.004-8.187v0c-0.432 0.084-0.667 0.028-0.705-0.168v0c-0.033-0.17 0.044-0.436 0.231-0.799 0.187-0.363 0.425-0.694 0.713-0.995v0c0.636-0.606 1.131-1.114 1.485-1.523 0.347-0.414 0.74-1.079 1.18-1.993v0c0.052 0.058 0.098 0.188 0.138 0.391v0c0.084 0.432 0.009 0.987-0.225 1.664-0.227 0.683-0.507 1.315-0.843 1.896-0.334 0.588-0.654 0.98-0.962 1.177v0c-0.275 0.156-0.612 0.272-1.012 0.35zM27.949 4.879v0c-0.262 0.051-0.53-0.002-0.805-0.159-0.267-0.152-0.434-0.394-0.499-0.728v0c-0.135-0.694 0.096-2.063 0.696-4.109v0l0.335-1.207c0.053-0.078 0.112-0.263 0.177-0.554 0.06-0.283 0.166-0.664 0.317-1.142v0c0.138-0.509 0.24-0.961 0.306-1.354 0.059-0.392 0.089-0.761 0.09-1.108v0c-0.006-0.033 0.046-0.111 0.158-0.234 0.118-0.125 0.236-0.233 0.354-0.324v0l0.285-0.107c0.268-0.052 0.504-0.047 0.706 0.015 0.202 0.062 0.287 0.185 0.255 0.368v0c-0.138 0.543-0.254 1.011-0.347 1.403-0.099 0.4-0.171 0.743-0.217 1.031v0l-0.049 0.009c-0.204 0.903-0.358 1.751-0.461 2.546-0.103 0.794-0.074 1.519 0.088 2.173v0l0.312 1.335c0.032 0.34-0.027 0.647-0.177 0.921v0c-0.112 0.124-0.271 0.284-0.477 0.48-0.207 0.19-0.475 0.405-0.801 0.646v0c-0.026 0.039-0.108 0.072-0.246 0.099zM40.367 2.652v0c-0.066 0.011-0.133 0.013-0.202 0.005-0.075-0.001-0.148-0.011-0.219-0.033v0c-0.508-0.155-0.865-0.438-1.072-0.848-0.207-0.41-0.336-0.953-0.386-1.628v0c0.019-0.281 0.013-0.76-0.018-1.438-0.038-0.684-0.023-1.234 0.046-1.653v0l-2.124 2.889-1.163 1.594c-0.797 1.134-1.513 1.757-2.15 1.868v0c-0.263 0.046-0.497-0.015-0.702-0.181v0c-0.36-0.316-0.586-0.74-0.679-1.272v0c-0.123-0.703-0.07-1.483 0.159-2.343 0.221-0.864 0.516-1.714 0.884-2.55 0.375-0.837 0.715-1.543 1.02-2.118v0c0.79-1.404 1.596-2.54 2.419-3.407 0.831-0.863 1.761-1.384 2.793-1.565v0c0.565-0.099 1.14-0.098 1.726 0.003 0.587 0.107 1.155 0.353 1.702 0.738v0l0.058 0.041c0.017 0.099-0.051 0.212-0.204 0.34v0c-0.054 0.077-0.101 0.136-0.142 0.177-0.047 0.042-0.084 0.082-0.111 0.121v0c-0.331 0.471-0.664 1.216-1 2.235-0.336 1.02-0.599 2.071-0.788 3.153-0.19 1.082-0.221 1.988-0.094 2.717v0c0.117 0.67 0.363 1.09 0.739 1.262v0c0.183 0.076 0.376 0.097 0.579 0.061v0c0.433-0.076 0.984-0.45 1.651-1.121v0c0.027-0.039 0.093-0.108 0.198-0.207 0.103-0.106 0.259-0.262 0.466-0.468v0c0.227-0.25 0.423-0.389 0.587-0.417v0c0.171-0.03 0.268 0.024 0.292 0.162v0c0.034 0.197-0.059 0.454-0.281 0.77v0c-0.168 0.199-0.36 0.418-0.575 0.659-0.214 0.247-0.471 0.499-0.772 0.754v0c-0.435 0.455-0.899 0.837-1.393 1.147-0.494 0.31-0.909 0.494-1.244 0.553zM34.163 0.437v0c0.696-0.122 1.813-1.38 3.35-3.773v0c0.4-0.652 0.755-1.272 1.066-1.861 0.31-0.589 0.589-1.162 0.836-1.72v0c0.429-1.07 0.513-1.771 0.251-2.105v0c-0.133-0.18-0.35-0.243-0.652-0.19v0c-0.368 0.064-0.834 0.342-1.398 0.833-0.569 0.499-1.127 1.104-1.672 1.815-0.546 0.711-1.032 1.412-1.46 2.103v0c-0.286 0.531-0.537 1.244-0.752 2.141-0.222 0.898-0.286 1.613-0.194 2.146v0c0.082 0.466 0.29 0.67 0.625 0.611zM50.141-13.591v0c-0.437 0.055-0.668-0.02-0.694-0.226v0c-0.021-0.165 0.075-0.423 0.287-0.771 0.212-0.349 0.471-0.664 0.778-0.944v0c0.682-0.563 1.21-1.039 1.585-1.428 0.375-0.383 0.817-1.016 1.324-1.9v0c0.041 0.062 0.075 0.196 0.101 0.401v0c0.055 0.437-0.055 0.984-0.328 1.643-0.279 0.667-0.606 1.279-0.98 1.836-0.374 0.557-0.717 0.926-1.03 1.107v0c-0.292 0.137-0.64 0.231-1.043 0.282zM39.54 16.823v0c-0.542 0.068-0.996-0.147-1.361-0.646-0.371-0.498-0.608-1.15-0.708-1.957v0c-0.1-0.8-0.051-1.64 0.148-2.518 0.192-0.877 0.555-1.655 1.088-2.333v0c0.086-0.118 0.162-0.182 0.228-0.19v0c0.238-0.03 0.376 0.107 0.415 0.412v0c0.021 0.165-0.009 0.357-0.09 0.575v0c-0.453 1.797-0.632 3.079-0.536 3.847v0c0.085 0.675 0.345 0.985 0.782 0.93v0c0.635-0.08 1.441-0.862 2.417-2.349v0c1.003-1.49 2.002-3.567 2.998-6.231 0.996-2.665 1.882-5.681 2.656-9.051v0l0.326-1.421c0.378-1.646 0.694-3.016 0.946-4.11 0.254-1.087 0.363-1.9 0.329-2.439v0c0.032-0.28 0.233-0.442 0.604-0.489v0c0.304-0.038 0.626 0.009 0.965 0.141 0.338 0.126 0.499 0.257 0.483 0.393v0c-0.081 0.695-0.193 1.358-0.336 1.987-0.143 0.629-0.299 1.23-0.469 1.802v0c-0.164 0.565-0.294 1.004-0.39 1.319-0.101 0.322-0.162 0.534-0.182 0.637v0c-1.094 4.296-2.738 8.983-4.929 14.063v0c-0.822 1.91-1.524 3.389-2.105 4.436-0.588 1.041-1.218 1.863-1.889 2.464v0c-0.49 0.431-0.954 0.674-1.39 0.728zM60.435-0.155v0c-0.066 0.008-0.134 0.006-0.202-0.006-0.074-0.005-0.147-0.02-0.217-0.045v0c-0.498-0.183-0.839-0.485-1.023-0.906-0.184-0.421-0.282-0.97-0.295-1.647v0c0.034-0.279 0.055-0.758 0.062-1.437 0-0.685 0.046-1.234 0.138-1.648v0l-2.282 2.766-1.25 1.527c-0.859 1.088-1.609 1.67-2.251 1.746v0c-0.265 0.031-0.495-0.042-0.69-0.221v0c-0.342-0.336-0.544-0.772-0.608-1.308v0c-0.084-0.708 0.013-1.485 0.29-2.33 0.269-0.851 0.61-1.683 1.024-2.497 0.421-0.815 0.8-1.501 1.137-2.057v0c0.867-1.358 1.735-2.447 2.606-3.268 0.877-0.815 1.836-1.284 2.875-1.406v0c0.569-0.067 1.144-0.034 1.723 0.099 0.58 0.14 1.133 0.417 1.659 0.832v0l0.055 0.043c0.012 0.099-0.063 0.209-0.223 0.329v0c-0.058 0.074-0.109 0.13-0.151 0.169-0.049 0.039-0.088 0.078-0.117 0.114v0c-0.356 0.451-0.731 1.177-1.123 2.177-0.392 0.999-0.713 2.034-0.963 3.104-0.25 1.07-0.331 1.972-0.245 2.707v0c0.08 0.675 0.302 1.109 0.667 1.301v0c0.178 0.086 0.37 0.118 0.575 0.093v0c0.437-0.052 1.007-0.394 1.711-1.027v0c0.029-0.037 0.099-0.102 0.209-0.196 0.109-0.1 0.273-0.247 0.491-0.441v0c0.241-0.236 0.444-0.364 0.61-0.384v0c0.172-0.02 0.266 0.039 0.282 0.178v0c0.023 0.199-0.085 0.45-0.324 0.754v0c-0.179 0.189-0.383 0.398-0.611 0.625-0.227 0.235-0.498 0.472-0.812 0.71v0c-0.459 0.43-0.944 0.786-1.455 1.068-0.511 0.282-0.935 0.442-1.272 0.482zM54.364-2.711v0c0.702-0.083 1.887-1.276 3.555-3.581v0c0.436-0.629 0.825-1.228 1.167-1.799 0.342-0.571 0.652-1.127 0.931-1.671v0c0.488-1.044 0.61-1.74 0.368-2.087v0c-0.123-0.187-0.336-0.262-0.641-0.227v0c-0.371 0.044-0.851 0.295-1.441 0.754-0.596 0.466-1.186 1.039-1.771 1.719-0.584 0.68-1.109 1.353-1.575 2.019v0c-0.315 0.514-0.606 1.213-0.87 2.096-0.272 0.885-0.376 1.595-0.313 2.131v0c0.055 0.47 0.252 0.685 0.59 0.646zM76.037 7.465v0c-0.746 0.037-1.372-0.272-1.879-0.927-0.506-0.649-0.783-1.429-0.828-2.341v0c-0.025-0.506 0.035-0.966 0.181-1.381v0c0.244-0.586 0.45-0.884 0.616-0.892v0c0.14-0.007 0.215 0.089 0.225 0.289v0c0.009 0.173-0.034 0.396-0.127 0.667v0c-0.028 0.102-0.047 0.196-0.056 0.284-0.016 0.088-0.022 0.165-0.018 0.231v0c0.03 0.606 0.242 1.223 0.633 1.85 0.385 0.622 0.847 0.919 1.387 0.892v0l0.404-0.12c0.795-0.247 1.538-0.735 2.23-1.464 0.698-0.729 1.374-1.618 2.029-2.665v0c0.876-1.432 1.647-2.97 2.312-4.611 0.659-1.642 1.218-3.268 1.677-4.881 0.467-1.612 0.801-3.067 1.003-4.365v0c-0.009-0.173-0.08-0.256-0.213-0.25v0c-0.24 0.012-0.599 0.304-1.077 0.875v0c-0.384 0.46-0.876 1.092-1.477 1.896-0.6 0.811-1.346 1.78-2.238 2.906v0l-0.77 1.01c-0.507 0.666-1.03 1.156-1.568 1.47-0.545 0.314-1.054 0.483-1.527 0.508v0c-0.406 0.02-0.75-0.046-1.031-0.199v0c-0.345-0.223-0.533-0.637-0.563-1.243v0c-0.049-0.979 0.326-2.623 1.124-4.933v0l0.578-1.651c0.294-0.796 0.551-1.52 0.773-2.171 0.221-0.659 0.437-1.263 0.649-1.815v0c0.211-0.451 0.47-0.684 0.776-0.7v0c0.373-0.019 0.45 0.198 0.233 0.649v0c-1.073 2.831-1.673 5.043-1.8 6.639v0c-0.03 0.075-0.042 0.169-0.035 0.282 0.006 0.12 0.012 0.246 0.019 0.379v0c0.037 0.746 0.362 1.103 0.975 1.073v0c0.4-0.02 0.96-0.285 1.682-0.795v0c0.719-0.577 1.605-1.476 2.658-2.697 1.054-1.221 2.314-2.766 3.783-4.635v0c0.253-0.286 0.492-0.569 0.718-0.847 0.219-0.285 0.426-0.549 0.621-0.792v0c0.126-0.146 0.239-0.222 0.339-0.228v0c0.107-0.005 0.167 0.145 0.183 0.452v0c0.015 0.306-0.018 0.698-0.101 1.176v0c-0.078 0.444-0.114 0.717-0.109 0.817v0c-0.283 2.484-0.892 5.171-1.829 8.062v0c-0.971 2.859-2.252 5.533-3.843 8.022-1.584 2.482-3.391 4.382-5.421 5.699v0c-0.426 0.295-0.858 0.454-1.298 0.475zM99.068 0.743v0c-1.419-0.052-2.628-0.28-3.628-0.683v0c-0.401-0.155-0.459-0.394-0.174-0.717v0c0.138-0.135 0.309-0.239 0.512-0.312 0.21-0.079 0.429-0.064 0.659 0.044v0c0.8 0.369 1.86 0.578 3.179 0.627v0c3.211 0.117 7.001-0.811 11.369-2.787v0c2.89-1.315 5.632-2.956 8.226-4.922 2.594-1.973 4.832-4.16 6.714-6.56 1.882-2.4 3.19-4.873 3.923-7.421v0c0.236-0.805 0.366-1.528 0.39-2.167v0c0.073-1.992-0.676-3.5-2.246-4.526-1.57-1.025-3.778-1.589-6.623-1.693v0c-0.233-0.009-0.527-0.009-0.88-0.002-0.36 0.007-0.795 0.018-1.302 0.033v0c-0.982 0.031-2.01 0.137-3.084 0.317-1.067 0.181-2.167 0.418-3.298 0.71v0c-2.257 0.598-4.266 1.448-6.027 2.552-1.768 1.103-2.916 2.388-3.444 3.857v0c-0.111 0.303-0.17 0.554-0.177 0.754v0c-0.014 0.373 0.092 0.664 0.318 0.872 0.232 0.215 0.581 0.432 1.047 0.649v0c0.196 0.114 0.291 0.254 0.285 0.42v0c-0.007 0.2-0.08 0.367-0.219 0.503v0c-0.424 0.458-0.868 0.575-1.333 0.351v0c-0.099-0.037-0.365-0.157-0.798-0.359-0.433-0.203-0.764-0.442-0.994-0.717v0c-0.286-0.384-0.421-0.796-0.405-1.236v0c0.007-0.2 0.105-0.603 0.294-1.21v0c0.637-1.731 1.997-3.253 4.079-4.564v0c1.387-0.903 2.913-1.671 4.578-2.304 1.664-0.633 3.34-1.129 5.027-1.487 1.688-0.359 3.259-0.545 4.714-0.559v0c0.574-0.019 1.075-0.027 1.502-0.025 0.42-0.005 0.751-0.003 0.99 0.006v0c7.195 0.263 10.711 2.643 10.546 7.14v0c-0.014 0.373-0.063 0.802-0.147 1.286-0.085 0.491-0.204 1.02-0.358 1.588v0c-1.238 4.118-3.782 7.917-7.631 11.399v0c-1.959 1.756-4.055 3.337-6.288 4.743-2.233 1.406-4.494 2.594-6.784 3.565-2.283 0.964-4.492 1.694-6.625 2.189-2.133 0.496-4.095 0.711-5.887 0.646zM104.905-2.086v0c-0.873-0.199-1.478-0.524-1.816-0.977-0.337-0.453-0.49-1.102-0.459-1.948v0c0.006-0.167 0.032-0.419 0.078-0.758 0.046-0.339 0.112-0.776 0.198-1.313v0c0.217-1.18 0.717-2.549 1.501-4.108 0.784-1.566 1.748-3.205 2.892-4.918 1.144-1.719 2.366-3.409 3.667-5.069 1.295-1.66 2.573-3.145 3.835-4.453v0c0.035-0.032 0.046-0.085 0.036-0.159-0.018-0.067-0.076-0.12-0.174-0.157v0l-0.096-0.103c-0.095-0.137-0.108-0.237-0.039-0.302v0l1.271-1.374c0.279-0.33 0.516-0.602 0.71-0.815 0.195-0.213 0.343-0.351 0.445-0.414v0c0.18-0.167 0.453-0.244 0.819-0.23v0c0.44 0.016 0.852 0.151 1.236 0.405 0.378 0.247 0.562 0.491 0.554 0.731v0c-0.006 0.167-0.078 0.301-0.215 0.402v0c-0.736 0.614-1.562 1.384-2.476 2.312-0.915 0.934-1.92 2.058-3.015 3.372v0c-1.485 1.74-2.87 3.501-4.156 5.281-1.279 1.781-2.343 3.427-3.192 4.937-0.855 1.503-1.367 2.725-1.535 3.666v0l-0.248 1.312c-0.118 0.503-0.186 0.974-0.202 1.414v0c-0.026 0.713 0.294 1.165 0.961 1.356v0c0.339 0.046 0.5 0.288 0.484 0.728v0c-0.012 0.34-0.127 0.642-0.344 0.908-0.21 0.259-0.45 0.35-0.72 0.274zM127.562-2.235v0c-0.705-0.055-1.312-0.289-1.821-0.703v0c-0.825-0.739-1.185-1.784-1.08-3.133v0c0.105-1.349 0.688-2.748 1.75-4.197 1.062-1.442 2.603-2.73 4.623-3.863v0c0.357-0.206 0.821-0.287 1.393-0.243v0c0.744 0.058 1.393 0.312 1.947 0.763 0.56 0.451 0.749 0.991 0.566 1.619v0c-0.32 1.025-0.908 1.912-1.761 2.661-0.854 0.749-1.837 1.395-2.949 1.937-1.111 0.535-2.245 1.049-3.4 1.542v0c-0.041 0.097-0.075 0.195-0.103 0.293-0.021 0.099-0.036 0.201-0.044 0.307v0c-0.037 0.472 0.091 0.896 0.383 1.274 0.292 0.377 0.723 0.588 1.295 0.632v0c0.439 0.034 0.816-0.003 1.132-0.113v0c0.554-0.164 1.018-0.315 1.389-0.454 0.365-0.139 0.797-0.359 1.295-0.661 0.498-0.302 1.179-0.758 2.042-1.366v0c0.387-0.244 0.617-0.363 0.69-0.358v0c0.199 0.015 0.254 0.174 0.164 0.474v0c-0.381 0.512-1.008 1.055-1.882 1.629-0.874 0.581-1.828 1.068-2.862 1.463-1.034 0.394-1.956 0.56-2.767 0.497zM127.236-7.195v0c0.273 0.021 0.852-0.205 1.737-0.677 0.886-0.479 1.723-1.01 2.511-1.591v0c1.375-1.083 2.087-1.944 2.136-2.582v0c0.013-0.166-0.025-0.323-0.113-0.47v0c-0.087-0.174-0.233-0.269-0.44-0.285v0c-0.638-0.05-1.774 0.624-3.407 2.022v0c-1.129 0.935-1.937 2.13-2.424 3.583zM132.888-0.27v0c-0.537-0.058-1.002-0.159-1.396-0.302v0c-0.354-0.139-0.521-0.295-0.502-0.467v0c0.029-0.265 0.313-0.385 0.854-0.36v0c0.507 0.022 0.848 0.005 1.021-0.05v0c0.312-0.033 0.672-0.044 1.08-0.033v0c0.378-0.026 0.685-0.043 0.921-0.051v0c1.668-0.295 2.555-0.929 2.661-1.904v0c0.074-0.676-0.188-1.573-0.783-2.69v0c-0.368-0.684-0.51-1.413-0.426-2.189v0c0.102-0.941 0.498-1.834 1.186-2.677 0.689-0.844 1.514-1.562 2.478-2.155 0.963-0.593 1.911-0.956 2.844-1.089v0c0.416-0.062 0.842-0.069 1.28-0.022v0c0.709 0.077 1.194 0.301 1.456 0.672v0c0.183 0.228 0.238 0.676 0.166 1.346v0c-0.055 0.504-0.194 1.008-0.417 1.513-0.229 0.498-0.51 0.9-0.845 1.206v0c-0.19 0.147-0.335 0.215-0.435 0.204v0c-0.166-0.018-0.223-0.262-0.171-0.733v0l0.159-0.998c0.063-0.268 0.111-0.501 0.146-0.698 0.042-0.203 0.071-0.371 0.085-0.504v0c0.062-0.57-0.021-0.918-0.249-1.043v0c-0.258-0.095-0.44-0.148-0.546-0.16v0c-0.703-0.076-1.493 0.16-2.37 0.708-0.878 0.548-1.614 1.216-2.21 2.002v0c-0.232 0.283-0.372 0.644-0.419 1.081v0c-0.058 0.537 0.016 1.182 0.222 1.936 0.206 0.753 0.357 1.306 0.453 1.658v0c0.258 0.772 0.45 1.44 0.577 2.005 0.127 0.557 0.169 1.038 0.125 1.442v0c-0.022 0.199-0.054 0.346-0.099 0.442v0c0.173-0.048 0.588-0.104 1.246-0.167v0c0.584-0.071 1.079-0.084 1.483-0.04v0c0.232 0.025 0.343 0.088 0.331 0.187v0c-0.004 0.033-0.116 0.138-0.336 0.316v0c-0.11 0.089-0.439 0.214-0.986 0.375-0.547 0.162-1.179 0.324-1.894 0.488-0.715 0.157-1.418 0.302-2.109 0.435-0.698 0.125-1.288 0.215-1.77 0.27v0c-0.827 0.145-1.764 0.16-2.811 0.046zM146.077 0.062v0c-0.806-0.106-1.386-0.428-1.739-0.966-0.358-0.545-0.487-1.201-0.386-1.967v0c0.181-1.375 0.861-2.65 2.038-3.826v0c0.943-0.931 1.967-1.761 3.073-2.49 1.097-0.723 2.16-1.282 3.187-1.677 1.02-0.39 1.867-0.54 2.54-0.452v0c0.634 0.084 1.019 0.407 1.154 0.97v0c0.097 0.282 0.122 0.608 0.072 0.977v0c-0.089 0.674-0.385 0.978-0.887 0.912v0c-0.238-0.031-0.432-0.168-0.581-0.409-0.156-0.243-0.208-0.565-0.155-0.969v0c-0.347-0.221-0.853-0.21-1.517 0.032-0.663 0.235-1.367 0.603-2.112 1.103-0.751 0.493-1.47 1.026-2.159 1.601-0.688 0.575-1.231 1.075-1.63 1.5v0c-0.712 0.76-1.135 1.642-1.267 2.647v0c-0.062 0.469 0.003 0.871 0.194 1.206 0.198 0.335 0.531 0.534 1.001 0.596v0c0.436 0.058 0.973-0.009 1.61-0.201v0c0.468-0.18 0.906-0.344 1.315-0.493 0.41-0.148 0.794-0.285 1.154-0.412v0c2.236-0.895 3.487-1.325 3.751-1.29v0c0.106 0.014 0.152 0.071 0.139 0.169v0c-0.013 0.099-0.116 0.22-0.31 0.363v0c-0.377 0.26-0.968 0.609-1.772 1.047-0.811 0.438-1.667 0.836-2.568 1.194-0.896 0.366-1.712 0.618-2.45 0.756v0c-0.661 0.115-1.226 0.141-1.695 0.079zM164.23 3.283v0c-0.868-0.145-1.196-0.852-0.983-2.121v0c0.216-1.295 0.987-3.137 2.312-5.525v0c-1.294 1.19-2.555 2.223-3.783 3.099-1.228 0.876-2.413 1.56-3.557 2.052v0c-0.825 0.41-1.537 0.564-2.135 0.465v0c-0.802-0.134-1.112-0.75-0.928-1.849v0c0.101-0.605 0.295-1.14 0.582-1.605v0c0.385-0.686 0.918-1.469 1.599-2.349 0.674-0.881 1.445-1.749 2.311-2.605 0.859-0.85 1.711-1.546 2.559-2.087v0c0.298-0.126 0.48-0.183 0.546-0.172v0c0.23 0.038 0.323 0.192 0.277 0.462v0c-0.016 0.099-0.088 0.225-0.215 0.38v0c-0.357 0.278-0.787 0.703-1.288 1.275-0.507 0.564-1.006 1.184-1.497 1.859-0.49 0.668-0.912 1.291-1.265 1.867-0.353 0.576-0.555 1.016-0.605 1.318v0c-0.1 0.598 0.116 0.942 0.649 1.031v0c0.237 0.04 0.5-0.001 0.791-0.121v0c1.365-0.563 2.654-1.3 3.867-2.213 1.214-0.912 2.427-2.227 3.64-3.944v0c0.335-0.147 0.687-0.189 1.055-0.128v0c0.368 0.062 0.658 0.228 0.87 0.5 0.21 0.278 0.282 0.618 0.215 1.019v0c-0.049 0.296-0.193 0.63-0.431 1.003v0c-0.055 0.126-0.133 0.251-0.236 0.376-0.107 0.117-0.224 0.25-0.35 0.398v0c-0.127 0.154-0.24 0.301-0.337 0.441-0.09 0.134-0.177 0.248-0.26 0.341v0c-0.82 1.026-1.472 1.893-1.956 2.604-0.476 0.705-0.762 1.343-0.857 1.915v0c-0.111 0.664 0.133 1.046 0.731 1.146v0c0.539 0.09 1.109-0.021 1.708-0.333v0c0.374-0.174 0.676-0.242 0.906-0.204v0c0.368 0.062 0.255 0.272-0.339 0.633-0.589 0.368-1.282 0.675-2.08 0.92v0c-0.748 0.145-1.253 0.196-1.516 0.152zM168.462 4.858v0c-0.757-0.157-1.05-0.65-0.878-1.479v0c0.13-0.627 0.433-1.251 0.911-1.874v0l5.125-6.974c0.378-0.507 0.896-1.186 1.556-2.036 0.659-0.844 1.462-1.875 2.41-3.095v0c0.092-0.117 0.199-0.252 0.318-0.403 0.112-0.147 0.235-0.295 0.368-0.445v0c0.277-0.317 0.558-0.671 0.844-1.061v0l0.855-1.119c0.908-1.194 1.681-2.129 2.319-2.807 0.644-0.676 1.305-1.152 1.982-1.427v0c0.86-0.305 1.388-0.437 1.584-0.396v0c0.235 0.049 0.435 0.332 0.599 0.849v0c-0.007 0.033 0 0.051 0.019 0.055 0.013 0.003 0.016 0.02 0.01 0.053v0c-0.041 0.196-0.256 0.495-0.646 0.898v0c-0.265 0.258-0.624 0.609-1.077 1.053-0.452 0.437-1.001 0.97-1.649 1.598v0c-2.365 2.239-4.406 4.284-6.125 6.133-1.713 1.857-3.225 3.773-4.533 5.748v0c0.981-0.559 2.02-1.106 3.118-1.64 1.09-0.529 2.01-0.924 2.759-1.184v0c1.037-0.336 1.901-0.433 2.592-0.289v0c1.057 0.22 1.442 1.025 1.154 2.415v0c-0.316 1.521-1.05 2.809-2.202 3.863-1.147 1.062-2.601 1.884-4.362 2.465-1.763 0.587-3.698 0.955-5.806 1.102v0c-0.465 0.074-0.88 0.073-1.245-0.003zM169.988 3.265l0.587 0.173c1.227 0.255 2.537 0.095 3.93-0.481v0c1.393-0.542 2.596-1.303 3.61-2.284 1.02-0.98 1.624-1.917 1.809-2.811v0c0.117-0.561 0.03-1.063-0.26-1.504v0c-0.287-0.128-0.91-0.043-1.871 0.255-0.962 0.304-2.01 0.744-3.143 1.318-1.14 0.573-2.179 1.195-3.115 1.866v0c-1.079 1.887-1.595 3.043-1.547 3.468zM180.344 6.08v0c-0.428-0.103-0.551-0.533-0.369-1.292v0c0.151-0.629 0.447-1.202 0.887-1.72v0c1.106-1.263 2.14-2.526 3.102-3.79v0c0.634-0.753 1.233-1.479 1.799-2.18 0.573-0.699 1.1-1.337 1.581-1.913v0c0.248-0.146 0.469-0.196 0.664-0.149v0c0.428 0.103 0.514 0.329 0.258 0.679v0c-0.121 0.218-0.277 0.468-0.468 0.751-0.191 0.283-0.42 0.619-0.685 1.008v0c-0.857 1.254-1.405 2.151-1.644 2.69v0c1.125-0.6 2.255-1.138 3.39-1.612 1.142-0.473 2.196-0.836 3.163-1.091 0.966-0.255 1.744-0.311 2.334-0.169v0c0.525 0.126 0.737 0.4 0.636 0.821v0c-0.087 0.363-0.346 0.712-0.777 1.048-0.422 0.33-0.799 0.456-1.129 0.376v0c-0.162-0.039-0.283-0.12-0.364-0.241v0c-0.089-0.056-0.283-0.12-0.581-0.191v0c-1.05-0.252-2.271-0.008-3.663 0.734v0c-1.463 0.725-2.86 1.685-4.189 2.88-1.336 1.194-2.361 2.261-3.074 3.2v0c-0.283 0.179-0.574 0.232-0.871 0.161zM192.741 8.582v0c-0.683-0.181-1.238-0.521-1.665-1.021v0c-0.678-0.876-0.844-1.969-0.497-3.276v0c0.347-1.308 1.173-2.579 2.48-3.812 1.305-1.227 3.053-2.215 5.245-2.965v0c0.388-0.138 0.86-0.134 1.414 0.012v0c0.722 0.191 1.314 0.559 1.777 1.102 0.469 0.545 0.558 1.11 0.264 1.695v0c-0.5 0.95-1.238 1.717-2.213 2.299-0.975 0.583-2.059 1.041-3.25 1.374-1.19 0.326-2.397 0.627-3.622 0.902v0c-0.058 0.088-0.109 0.178-0.154 0.269-0.039 0.093-0.071 0.191-0.099 0.295v0c-0.121 0.458-0.073 0.898 0.146 1.321 0.219 0.424 0.605 0.709 1.16 0.856v0c0.425 0.113 0.803 0.144 1.133 0.093v0c0.575-0.061 1.058-0.127 1.449-0.195 0.384-0.071 0.849-0.21 1.393-0.417 0.545-0.207 1.296-0.532 2.255-0.975v0c0.424-0.17 0.672-0.246 0.743-0.227v0c0.193 0.051 0.218 0.217 0.076 0.496v0c-0.467 0.435-1.182 0.856-2.145 1.263-0.965 0.413-1.991 0.721-3.079 0.921-1.088 0.201-2.025 0.198-2.811-0.01zM193.315 3.644v0c0.264 0.07 0.875-0.047 1.831-0.352 0.958-0.311 1.877-0.682 2.757-1.111v0c1.548-0.817 2.404-1.535 2.568-2.154v0c0.043-0.161 0.034-0.322-0.028-0.483v0c-0.054-0.187-0.181-0.307-0.38-0.36v0c-0.619-0.164-1.857 0.294-3.716 1.374v0c-1.28 0.716-2.29 1.745-3.032 3.086z" opacity="1" transform="matrix(1,0,0,1,0,0)" fill="#ffffff" class="wordmark-text-0" data-fill-palette-color="primary" id="text-0"></path></svg></g></svg></g><g transform="matrix(1,0,0,1,73.121641344,64.27644025113317)"><svg viewBox="0 0 98.18807731200002 9.255316587266876" height="9.255316587266876" width="98.18807731200002"><g transform="matrix(1,0,0,1,0,0)"><svg width="98.18807731200002" viewBox="2.0181819052480003 -33.9 477.88181809475196 45.05" height="9.255316587266876" data-palette-color="#a3c0c4"><path d="M8-32.1L8-32.1Q11.45-32.1 15.6-32.25 19.75-32.4 23.7-32.4L23.7-32.4Q23.95-30.55 24.35-29 24.75-27.45 25.1-25.8L25.1-25.8Q24.85-25.55 24.25-25.55L24.25-25.55Q23.6-25.55 23.55-25.9L23.55-25.9Q22.75-28.85 21.3-29.65 19.85-30.45 17.9-30.45L17.9-30.45 13.7-30.45Q13.4-30.45 12.6-30.43 11.8-30.4 11.1-30.3 10.4-30.2 10.3-29.95L10.3-29.95Q10.15-29.45 10.13-28.65 10.1-27.85 10.1-27L10.1-27Q10.1-26.65 10.1-26.45L10.1-26.45 10.1-17.35Q10.1-17.15 10.75-17.1 11.4-17.05 12.2-17.05L12.2-17.05 14.75-17.05Q16.5-17.05 17.48-17.15 18.45-17.25 18.9-17.6 19.35-17.95 19.6-18.65 19.85-19.35 20.15-20.55L20.15-20.55Q20.2-20.9 20.85-20.9L20.85-20.9Q21.45-20.9 21.7-20.65L21.7-20.65 21.7-11.45Q21.5-11.25 20.9-11.25L20.9-11.25Q20.3-11.25 20.15-11.6L20.15-11.6Q19.8-13 19.58-13.63 19.35-14.25 19.18-14.48 19-14.7 18.75-14.85L18.75-14.85Q18.5-15.05 17.6-15.13 16.7-15.2 15.63-15.23 14.55-15.25 13.6-15.25L13.6-15.25Q12.95-15.25 12.13-15.23 11.3-15.2 10.7-15.13 10.1-15.05 10.1-14.8L10.1-14.8 10.1-5.5Q10.1-5.4 10.1-5.2L10.1-5.2Q10.1-4.5 10.13-3.4 10.15-2.3 10.35-2.15L10.35-2.15Q10.85-1.8 11.58-1.73 12.3-1.65 13.85-1.65L13.85-1.65 16.2-1.65Q17.95-1.65 19.65-2 21.35-2.35 22.35-3L22.35-3Q23.5-3.7 24.15-5.03 24.8-6.35 25.4-7.9L25.4-7.9Q25.5-8.2 26.1-8.2L26.1-8.2Q27-8.2 27.3-7.9L27.3-7.9Q26.6-5.9 25.78-3.65 24.95-1.4 24.7 0.2L24.7 0.2Q20.75 0.2 16.85 0.1 12.95 0 8.05 0L8.05 0Q6.35 0 5 0.08 3.65 0.15 2.2 0.15L2.2 0.15Q2-0.05 2.02-0.55 2.05-1.05 2.2-1.25L2.2-1.25Q2.5-1.25 3.3-1.33 4.1-1.4 4.83-1.6 5.55-1.8 5.6-2.05L5.6-2.05Q5.8-2.65 5.83-3.6 5.85-4.55 5.85-5.65L5.85-5.65 5.85-26.5Q5.85-27.6 5.83-28.58 5.8-29.55 5.6-30.15L5.6-30.15Q5.55-30.45 4.83-30.6 4.1-30.75 3.3-30.83 2.5-30.9 2.2-30.9L2.2-30.9Q2.05-31.1 2.02-31.6 2-32.1 2.2-32.3L2.2-32.3Q3.7-32.25 5.15-32.18 6.6-32.1 8-32.1ZM34.65-20.75L34.65-20.75Q36.15-20.75 37.47-20.85 38.8-20.95 39.6-21L39.6-21Q39.65-20.85 39.67-20.35 39.7-19.85 39.5-19.6L39.5-19.6Q38.9-19.6 38.22-19.45 37.55-19.3 37.55-18.75L37.55-18.75Q37.55-18.55 37.8-18.15L37.8-18.15 41-13.05Q41.65-14.1 42.45-15.2 43.25-16.3 43.85-17.23 44.45-18.15 44.45-18.65L44.45-18.65Q44.45-19.05 44-19.25 43.55-19.45 42.97-19.5 42.4-19.55 42.05-19.6L42.05-19.6Q41.8-19.6 41.75-19.6L41.75-19.6Q41.7-19.65 41.67-20.25 41.65-20.85 41.75-21L41.75-21Q43.25-20.95 44.2-20.85 45.15-20.75 46.65-20.75L46.65-20.75Q47.95-20.75 49.02-20.85 50.1-20.95 50.6-21L50.6-21Q50.65-20.8 50.65-20.2 50.65-19.6 50.55-19.6L50.55-19.6Q50.1-19.6 49.32-19.5 48.55-19.4 47.82-19.18 47.1-18.95 46.75-18.5L46.75-18.5Q45.9-17.3 44.85-15.8 43.8-14.3 42.97-13.15 42.15-12 41.9-11.7L41.9-11.7Q42.05-11.5 42.67-10.55 43.3-9.6 44.15-8.35 45-7.1 45.82-5.88 46.65-4.65 47.2-3.85 47.75-3.05 47.75-3.05L47.75-3.05Q48.5-2 49.47-1.63 50.45-1.25 51.5-1.25L51.5-1.25Q51.6-1.25 51.57-0.63 51.55 0 51.45 0.15L51.45 0.15Q50.1 0.05 49.15-0.03 48.2-0.1 46.85-0.1L46.85-0.1Q45.3-0.1 44.17-0.03 43.05 0.05 41.45 0.15L41.45 0.15Q41.35-0.1 41.37-0.68 41.4-1.25 41.5-1.25L41.5-1.25Q42.05-1.3 42.8-1.5 43.55-1.7 43.55-2.15L43.55-2.15Q43.55-2.25 43.45-2.45L43.45-2.45Q43.45-2.45 43.05-3.1 42.65-3.75 42.02-4.75 41.4-5.75 40.75-6.78 40.1-7.8 39.6-8.55L39.6-8.55Q38.9-7.5 37.97-6.18 37.05-4.85 36.05-3.25L36.05-3.25Q35.85-2.95 35.82-2.75 35.8-2.55 35.8-2.35L35.8-2.35Q35.8-1.65 36.72-1.5 37.65-1.35 38.45-1.25L38.45-1.25Q38.55-1.25 38.55-0.65 38.55-0.05 38.4 0.15L38.4 0.15Q37 0.05 36.12-0.03 35.25-0.1 33.8-0.1L33.8-0.1Q32.4-0.1 31.5-0.03 30.6 0.05 29.2 0.15L29.2 0.15Q29.15-0.15 29.17-0.6 29.2-1.05 29.3-1.25L29.3-1.25Q30.45-1.45 31.8-1.75 33.15-2.05 33.95-3.15L33.95-3.15Q33.95-3.15 34.4-3.83 34.85-4.5 35.55-5.48 36.25-6.45 36.92-7.48 37.6-8.5 38.12-9.22 38.65-9.95 38.7-10.05L38.7-10.05Q38.6-10.25 37.97-11.15 37.35-12.05 36.52-13.28 35.7-14.5 34.9-15.7 34.1-16.9 33.57-17.7 33.05-18.5 33.05-18.5L33.05-18.5Q32.65-19.1 31.57-19.35 30.5-19.6 29.75-19.6L29.75-19.6Q29.7-19.6 29.7-20.2 29.7-20.8 29.8-21L29.8-21Q31-20.9 32.12-20.83 33.25-20.75 34.65-20.75ZM66.05-21.4L66.05-21.4Q68.3-21.4 69.97-20.45 71.65-19.5 72.72-17.95 73.8-16.4 74.32-14.68 74.84-12.95 74.84-11.35L74.84-11.35Q74.84-9 73.84-6.88 72.84-4.75 71.2-3.13 69.55-1.5 67.52-0.55 65.5 0.4 63.45 0.4L63.45 0.4Q62.5 0.4 61.55 0.23 60.6 0.05 60-0.15L60-0.15Q60-0.15 59.9 0.03 59.8 0.2 59.8 0.5L59.8 0.5 59.8 5.2Q59.8 6.3 59.82 7.28 59.85 8.25 60.05 8.85L60.05 8.85Q60.15 9.1 60.77 9.28 61.4 9.45 62.12 9.53 62.85 9.6 63.15 9.6L63.15 9.6Q63.3 9.8 63.32 10.33 63.35 10.85 63.15 11.05L63.15 11.05Q61.65 10.95 60.5 10.88 59.35 10.8 57.9 10.8L57.9 10.8Q56.5 10.8 55.37 10.88 54.25 10.95 52.75 11.05L52.75 11.05Q52.55 10.85 52.57 10.33 52.6 9.8 52.75 9.6L52.75 9.6Q53.05 9.6 53.75 9.53 54.45 9.45 55.1 9.28 55.75 9.1 55.8 8.85L55.8 8.85Q56 8.25 56.02 7.28 56.05 6.3 56.05 5.2L56.05 5.2 56.05-14.75Q56.05-15.25 56.02-16.05 56-16.85 55.8-17.3L55.8-17.3Q55.65-17.75 54.95-17.93 54.25-18.1 53.55-18.13 52.85-18.15 52.65-18.15L52.65-18.15Q52.6-18.25 52.55-18.75 52.5-19.25 52.65-19.45L52.65-19.45Q54.55-19.7 56.37-20.2 58.2-20.7 59.65-21.5L59.65-21.5Q59.85-21.5 60-21.2 60.15-20.9 60.15-20.7L60.15-20.7Q60.1-20.45 59.95-19.73 59.8-19 59.8-18.7L59.8-18.7Q59.8-18.5 59.9-18.5L59.9-18.5Q59.95-18.5 60.05-18.6L60.05-18.6Q60.65-19.15 61.7-19.8 62.75-20.45 63.92-20.93 65.09-21.4 66.05-21.4ZM63.95-18.5L63.95-18.5Q62.95-18.5 62-18.18 61.05-17.85 60.42-17.4 59.8-16.95 59.8-16.6L59.8-16.6 59.8-4.9Q59.8-3.65 60.57-2.85 61.35-2.05 62.42-1.68 63.5-1.3 64.34-1.3L64.34-1.3Q66.4-1.3 67.82-2.53 69.25-3.75 70-5.65 70.75-7.55 70.75-9.5L70.75-9.5Q70.75-13.85 68.75-16.18 66.75-18.5 63.95-18.5ZM80.89-5.65L80.89-27.25Q80.89-27.8 80.87-28.58 80.84-29.35 80.64-29.8L80.64-29.8Q80.44-30.35 79.57-30.5 78.69-30.65 77.69-30.65L77.69-30.65Q77.64-30.65 77.62-31.28 77.59-31.9 77.74-31.95L77.74-31.95Q79.59-32.15 81.34-32.68 83.09-33.2 84.64-33.9L84.64-33.9Q84.84-33.9 85.02-33.63 85.19-33.35 85.19-33.1L85.19-33.1Q85.19-33.1 84.92-32 84.64-30.9 84.64-28.85L84.64-28.85 84.64-5.65Q84.64-4.55 84.67-3.6 84.69-2.65 84.89-2.05L84.89-2.05Q84.99-1.8 85.62-1.6 86.24-1.4 86.97-1.33 87.69-1.25 87.99-1.25L87.99-1.25Q88.14-1.05 88.17-0.55 88.19-0.05 87.99 0.15L87.99 0.15Q86.49 0.05 85.34-0.03 84.19-0.1 82.74-0.1L82.74-0.1Q81.34-0.1 80.22-0.03 79.09 0.05 77.59 0.15L77.59 0.15Q77.39-0.05 77.42-0.55 77.44-1.05 77.59-1.25L77.59-1.25Q77.89-1.25 78.59-1.33 79.29-1.4 79.94-1.6 80.59-1.8 80.64-2.05L80.64-2.05Q80.84-2.65 80.87-3.6 80.89-4.55 80.89-5.65L80.89-5.65ZM101.39-21.45L101.39-21.45Q104.64-21.45 106.97-20.05 109.29-18.65 110.57-16.25 111.84-13.85 111.84-10.8L111.84-10.8Q111.84-7.65 110.49-5.13 109.14-2.6 106.79-1.13 104.44 0.35 101.49 0.35L101.49 0.35Q98.29 0.35 95.92-1.07 93.54-2.5 92.27-4.93 90.99-7.35 90.99-10.4L90.99-10.4Q90.99-13.55 92.37-16.05 93.74-18.55 96.09-20 98.44-21.45 101.39-21.45ZM100.84-19.8L100.84-19.8Q98.79-19.8 97.54-18.57 96.29-17.35 95.74-15.43 95.19-13.5 95.19-11.4L95.19-11.4Q95.19-9.05 95.97-6.7 96.74-4.35 98.27-2.8 99.79-1.25 101.99-1.25L101.99-1.25Q104.09-1.25 105.32-2.48 106.54-3.7 107.09-5.65 107.64-7.6 107.64-9.65L107.64-9.65Q107.64-12.05 106.84-14.38 106.04-16.7 104.54-18.25 103.04-19.8 100.84-19.8ZM128.64-21.35L128.64-21.35Q129.59-21.35 130.44-20.93 131.29-20.5 131.64-19.9L131.64-19.9Q131.74-19.7 131.79-19.35 131.84-19 131.84-18.6L131.84-18.6Q131.84-17.25 131.21-16.65 130.59-16.05 130.19-16.05L130.19-16.05Q129.69-16.05 129.24-16.4 128.79-16.75 128.39-17L128.39-17Q128.04-17.25 127.66-17.43 127.29-17.6 126.59-17.6L126.59-17.6Q125.54-17.6 124.66-16.73 123.79-15.85 123.24-14.8 122.69-13.75 122.69-13.2L122.69-13.2 122.69-5.65Q122.69-4.55 122.71-3.6 122.74-2.65 122.94-2.05L122.94-2.05Q123.04-1.8 123.94-1.6 124.84-1.4 125.84-1.33 126.84-1.25 127.14-1.25L127.14-1.25Q127.29-1.05 127.31-0.55 127.34-0.05 127.14 0.15L127.14 0.15Q125.64 0.05 124.09-0.03 122.54-0.1 121.09-0.1L121.09-0.1Q119.69-0.1 118.39-0.03 117.09 0.05 115.59 0.15L115.59 0.15Q115.39-0.05 115.41-0.55 115.44-1.05 115.59-1.25L115.59-1.25Q115.89-1.25 116.61-1.33 117.34-1.4 117.99-1.6 118.64-1.8 118.69-2.05L118.69-2.05Q118.89-2.65 118.91-3.6 118.94-4.55 118.94-5.65L118.94-5.65 118.94-14.75Q118.94-15.25 118.91-16.05 118.89-16.85 118.69-17.3L118.69-17.3Q118.54-17.75 117.84-17.93 117.14-18.1 116.44-18.13 115.74-18.15 115.54-18.15L115.54-18.15Q115.49-18.25 115.44-18.75 115.39-19.25 115.54-19.45L115.54-19.45Q117.44-19.7 119.24-20.2 121.04-20.7 122.49-21.5L122.49-21.5Q122.69-21.5 122.86-21.2 123.04-20.9 123.04-20.7L123.04-20.7Q123.04-20.55 122.94-19.55 122.84-18.55 122.76-17.53 122.69-16.5 122.69-16.2L122.69-16.2Q122.69-16.05 122.76-16.05 122.84-16.05 122.89-16.1L122.89-16.1Q123.39-17.15 124.31-18.38 125.24-19.6 126.39-20.48 127.54-21.35 128.64-21.35ZM144.28-21.3L144.28-21.3Q145.69-21.3 146.91-20.4 148.13-19.5 148.88-18 149.63-16.5 149.63-14.6L149.63-14.6 149.63-4.55Q149.63-3.6 149.98-2.93 150.34-2.25 151.13-2.25L151.13-2.25Q151.84-2.25 152.24-2.55 152.63-2.85 152.74-2.9L152.74-2.9Q152.84-2.9 152.88-2.75 152.94-2.6 152.94-2.5L152.94-2.5Q152.94-1.95 152.69-1.55L152.69-1.55Q152.38-1.3 151.71-0.85 151.03-0.4 150.31-0.05 149.59 0.3 149.03 0.3L149.03 0.3Q147.98 0.3 147.16-0.75 146.34-1.8 146.09-2.9L146.09-2.9Q145.88-2.7 145.16-2.15 144.44-1.6 143.48-1.03 142.53-0.45 141.61-0.03 140.69 0.4 140.03 0.4L140.03 0.4Q137.63 0.4 135.98-1.23 134.34-2.85 134.34-5.2L134.34-5.2Q134.34-6.7 135.16-7.78 135.98-8.85 136.78-9.15L136.78-9.15Q138.19-9.65 139.91-10.23 141.63-10.8 143.13-11.35 144.63-11.9 145.34-12.2L145.34-12.2Q145.73-12.35 145.84-12.58 145.94-12.8 145.94-13.45L145.94-13.45 145.94-14.75Q145.94-15.85 145.38-16.93 144.84-18 143.88-18.73 142.94-19.45 141.73-19.45L141.73-19.45Q140.48-19.45 139.88-18.65 139.28-17.85 139.03-16.4L139.03-16.4Q138.59-14.05 136.73-14.05L136.73-14.05Q135.94-14.05 135.51-14.7 135.09-15.35 135.09-16.1L135.09-16.1Q135.09-16.25 135.19-16.68 135.28-17.1 135.44-17.3L135.44-17.3Q136.19-18 137.59-18.95 138.98-19.9 140.76-20.6 142.53-21.3 144.28-21.3ZM141.69-2.25L141.69-2.25Q142.53-2.25 143.53-2.65 144.53-3.05 145.23-3.53 145.94-4 145.94-4.25L145.94-4.25 145.94-10.9Q144.98-10.6 143.53-10.15 142.09-9.7 141.38-9.45L141.38-9.45Q140.09-8.95 139.23-8 138.38-7.05 138.38-5.65L138.38-5.65Q138.38-4.3 139.34-3.28 140.28-2.25 141.69-2.25ZM172.78-6.8L172.78-6.8Q172.78-6.8 173.25-8.03 173.73-9.25 174.53-11.35 175.33-13.45 176.35-16.03 177.38-18.6 178.43-21.33 179.48-24.05 180.45-26.55 181.43-29.05 182.18-30.95L182.18-30.95Q182.38-31.35 183.06-31.85 183.73-32.35 184.08-32.35L184.08-32.35Q184.18-32.35 184.2-32.33 184.23-32.3 184.33-32.25L184.33-32.25 194.28-6.15Q195.38-3.25 195.53-2.95L195.53-2.95Q195.78-2.4 196.5-2 197.23-1.6 197.95-1.43 198.68-1.25 198.88-1.25L198.88-1.25Q199.08-1 199.03-0.48 198.98 0.05 198.93 0.15L198.93 0.15Q197.48 0.05 196.33-0.03 195.18-0.1 193.58-0.1L193.58-0.1Q191.88-0.1 190.75-0.03 189.63 0.05 187.93 0.15L187.93 0.15Q187.73-0.05 187.75-0.55 187.78-1.05 187.98-1.25L187.98-1.25Q188.43-1.25 189.38-1.43 190.33-1.6 190.68-1.9L190.68-1.9Q190.88-2.1 190.88-2.6L190.88-2.6Q190.88-3.05 190.56-4.13 190.23-5.2 189.73-6.55 189.23-7.9 188.73-9.18 188.23-10.45 187.91-11.28 187.58-12.1 187.58-12.1L187.58-12.1Q187.58-12.1 187.48-12.2 187.38-12.3 187.28-12.3L187.28-12.3Q186.53-12.35 185.43-12.35 184.33-12.35 183.38-12.35L183.38-12.35Q183.13-12.35 182.88-12.35 182.63-12.35 182.43-12.35L182.43-12.35Q180.93-12.35 179.88-12.33 178.83-12.3 177.18-12.2L177.18-12.2Q177.13-12.2 177.03-12.13 176.93-12.05 176.93-12.05L176.93-12.05Q176.93-12.05 176.56-11.05 176.18-10.05 175.66-8.68 175.13-7.3 174.73-6.1L174.73-6.1Q174.28-4.85 174.16-4 174.03-3.15 174.03-2.65L174.03-2.65Q174.03-2.1 174.81-1.78 175.58-1.45 176.41-1.35 177.23-1.25 177.43-1.25L177.43-1.25Q177.53-1.15 177.58-0.63 177.63-0.1 177.53 0.15L177.53 0.15Q176.58 0.1 175.91 0.05 175.23 0 174.56-0.05 173.88-0.1 172.78-0.1L172.78-0.1Q171.68-0.1 170.93-0.05 170.18 0 169.43 0.05 168.68 0.1 167.53 0.15L167.53 0.15Q167.43 0.05 167.43-0.48 167.43-1 167.53-1.25L167.53-1.25Q167.98-1.25 169.06-1.48 170.13-1.7 170.48-2.2L170.48-2.2Q171.23-3.15 171.75-4.33 172.28-5.5 172.78-6.8ZM186.63-14.65L182.33-26.45 177.88-14.55Q177.88-14.55 177.91-14.45 177.93-14.35 177.98-14.35L177.98-14.35Q178.93-14.3 180.25-14.28 181.58-14.25 182.38-14.25L182.38-14.25Q183.53-14.25 184.45-14.3 185.38-14.35 186.48-14.4L186.48-14.4Q186.58-14.4 186.6-14.53 186.63-14.65 186.63-14.65L186.63-14.65ZM212.93-21.4L212.93-21.4Q215.18-21.4 216.85-20.45 218.53-19.5 219.6-17.95 220.68-16.4 221.2-14.68 221.73-12.95 221.73-11.35L221.73-11.35Q221.73-9 220.73-6.88 219.73-4.75 218.08-3.13 216.43-1.5 214.4-0.55 212.38 0.4 210.33 0.4L210.33 0.4Q209.38 0.4 208.43 0.23 207.48 0.05 206.88-0.15L206.88-0.15Q206.88-0.15 206.78 0.03 206.68 0.2 206.68 0.5L206.68 0.5 206.68 5.2Q206.68 6.3 206.7 7.28 206.73 8.25 206.93 8.85L206.93 8.85Q207.03 9.1 207.65 9.28 208.28 9.45 209 9.53 209.73 9.6 210.03 9.6L210.03 9.6Q210.18 9.8 210.2 10.33 210.23 10.85 210.03 11.05L210.03 11.05Q208.53 10.95 207.38 10.88 206.23 10.8 204.78 10.8L204.78 10.8Q203.38 10.8 202.25 10.88 201.13 10.95 199.63 11.05L199.63 11.05Q199.43 10.85 199.45 10.33 199.48 9.8 199.63 9.6L199.63 9.6Q199.93 9.6 200.63 9.53 201.33 9.45 201.98 9.28 202.63 9.1 202.68 8.85L202.68 8.85Q202.88 8.25 202.9 7.28 202.93 6.3 202.93 5.2L202.93 5.2 202.93-14.75Q202.93-15.25 202.9-16.05 202.88-16.85 202.68-17.3L202.68-17.3Q202.53-17.75 201.83-17.93 201.13-18.1 200.43-18.13 199.73-18.15 199.53-18.15L199.53-18.15Q199.48-18.25 199.43-18.75 199.38-19.25 199.53-19.45L199.53-19.45Q201.43-19.7 203.25-20.2 205.08-20.7 206.53-21.5L206.53-21.5Q206.73-21.5 206.88-21.2 207.03-20.9 207.03-20.7L207.03-20.7Q206.98-20.45 206.83-19.73 206.68-19 206.68-18.7L206.68-18.7Q206.68-18.5 206.78-18.5L206.78-18.5Q206.83-18.5 206.93-18.6L206.93-18.6Q207.53-19.15 208.58-19.8 209.63-20.45 210.8-20.93 211.98-21.4 212.93-21.4ZM210.83-18.5L210.83-18.5Q209.83-18.5 208.88-18.18 207.93-17.85 207.3-17.4 206.68-16.95 206.68-16.6L206.68-16.6 206.68-4.9Q206.68-3.65 207.45-2.85 208.23-2.05 209.3-1.68 210.38-1.3 211.23-1.3L211.23-1.3Q213.28-1.3 214.7-2.53 216.13-3.75 216.88-5.65 217.63-7.55 217.63-9.5L217.63-9.5Q217.63-13.85 215.63-16.18 213.63-18.5 210.83-18.5ZM238.43-21.35L238.43-21.35Q239.38-21.35 240.22-20.93 241.07-20.5 241.43-19.9L241.43-19.9Q241.53-19.7 241.57-19.35 241.63-19 241.63-18.6L241.63-18.6Q241.63-17.25 241-16.65 240.38-16.05 239.97-16.05L239.97-16.05Q239.47-16.05 239.03-16.4 238.57-16.75 238.18-17L238.18-17Q237.82-17.25 237.45-17.43 237.07-17.6 236.38-17.6L236.38-17.6Q235.32-17.6 234.45-16.73 233.57-15.85 233.03-14.8 232.47-13.75 232.47-13.2L232.47-13.2 232.47-5.65Q232.47-4.55 232.5-3.6 232.53-2.65 232.72-2.05L232.72-2.05Q232.82-1.8 233.72-1.6 234.63-1.4 235.63-1.33 236.63-1.25 236.93-1.25L236.93-1.25Q237.07-1.05 237.1-0.55 237.13-0.05 236.93 0.15L236.93 0.15Q235.43 0.05 233.88-0.03 232.32-0.1 230.88-0.1L230.88-0.1Q229.47-0.1 228.18-0.03 226.88 0.05 225.38 0.15L225.38 0.15Q225.18-0.05 225.2-0.55 225.22-1.05 225.38-1.25L225.38-1.25Q225.68-1.25 226.4-1.33 227.13-1.4 227.78-1.6 228.43-1.8 228.47-2.05L228.47-2.05Q228.68-2.65 228.7-3.6 228.72-4.55 228.72-5.65L228.72-5.65 228.72-14.75Q228.72-15.25 228.7-16.05 228.68-16.85 228.47-17.3L228.47-17.3Q228.32-17.75 227.63-17.93 226.93-18.1 226.22-18.13 225.53-18.15 225.32-18.15L225.32-18.15Q225.28-18.25 225.22-18.75 225.18-19.25 225.32-19.45L225.32-19.45Q227.22-19.7 229.03-20.2 230.82-20.7 232.28-21.5L232.28-21.5Q232.47-21.5 232.65-21.2 232.82-20.9 232.82-20.7L232.82-20.7Q232.82-20.55 232.72-19.55 232.63-18.55 232.55-17.53 232.47-16.5 232.47-16.2L232.47-16.2Q232.47-16.05 232.55-16.05 232.63-16.05 232.68-16.1L232.68-16.1Q233.18-17.15 234.1-18.38 235.03-19.6 236.18-20.48 237.32-21.35 238.43-21.35ZM247.52-12.1L247.52-12.1Q247.47-9 248.57-6.9 249.67-4.8 251.52-3.78 253.37-2.75 255.52-2.75L255.52-2.75Q256.87-2.75 257.97-3.23 259.07-3.7 259.82-4.33 260.57-4.95 260.87-5.3L260.87-5.3Q260.92-5.3 261.1-5.13 261.27-4.95 261.27-4.65L261.27-4.65Q261.27-4.25 260.97-3.75L260.97-3.75Q260.52-3.05 259.57-2.08 258.62-1.1 257.17-0.35 255.72 0.4 253.82 0.4L253.82 0.4Q250.97 0.4 248.77-0.95 246.57-2.3 245.32-4.6 244.07-6.9 244.07-9.75L244.07-9.75Q244.07-12.2 244.95-14.33 245.82-16.45 247.25-18.03 248.67-19.6 250.37-20.5 252.07-21.4 253.67-21.4L253.67-21.4Q255.87-21.4 257.3-20.65 258.72-19.9 259.55-18.8 260.37-17.7 260.7-16.6 261.02-15.5 261.02-14.75L261.02-14.75Q261.02-13.7 260.77-13.1 260.52-12.5 259.82-12.45L259.82-12.45Q259.37-12.4 258.05-12.38 256.72-12.35 255.02-12.3 253.32-12.25 251.67-12.2 250.02-12.15 248.87-12.13 247.72-12.1 247.52-12.1ZM247.77-13.9L247.77-13.9 255.72-13.9Q256.17-13.9 256.5-14.15 256.82-14.4 256.87-15.05L256.87-15.05Q256.92-15.65 256.52-16.75 256.12-17.85 255.25-18.75 254.37-19.65 252.87-19.65L252.87-19.65Q251.32-19.65 250.32-18.78 249.32-17.9 248.75-16.78 248.17-15.65 247.95-14.78 247.72-13.9 247.77-13.9ZM278.82-21.4L278.82-21.4Q281.47-21.4 282.82-20.3 284.17-19.2 284.64-16.9 285.12-14.6 285.12-11.05L285.12-11.05 285.12-5.65Q285.12-4.55 285.14-3.6 285.17-2.65 285.37-2.05L285.37-2.05Q285.47-1.8 286.09-1.6 286.72-1.4 287.42-1.33 288.12-1.25 288.42-1.25L288.42-1.25Q288.57-1.05 288.59-0.55 288.62-0.05 288.42 0.15L288.42 0.15Q286.92 0.05 285.8-0.03 284.67-0.1 283.22-0.1L283.22-0.1Q281.82-0.1 280.67-0.03 279.52 0.05 278.02 0.15L278.02 0.15Q277.82-0.05 277.84-0.55 277.87-1.05 278.02-1.25L278.02-1.25Q278.32-1.25 279.05-1.33 279.77-1.4 280.42-1.6 281.07-1.8 281.12-2.05L281.12-2.05Q281.32-2.65 281.34-3.6 281.37-4.55 281.37-5.65L281.37-5.65 281.37-10.55Q281.37-13.6 280.97-15.33 280.57-17.05 279.52-17.8 278.47-18.55 276.57-18.55L276.57-18.55Q275.67-18.55 274.59-17.98 273.52-17.4 272.72-16.75 271.92-16.1 271.92-15.85L271.92-15.85 271.92-5.65Q271.92-4.55 271.94-3.6 271.97-2.65 272.17-2.05L272.17-2.05Q272.27-1.8 272.89-1.6 273.52-1.4 274.22-1.33 274.92-1.25 275.22-1.25L275.22-1.25Q275.37-1.05 275.39-0.55 275.42-0.05 275.22 0.15L275.22 0.15Q273.72 0.05 272.59-0.03 271.47-0.1 270.02-0.1L270.02-0.1Q268.62-0.1 267.47-0.03 266.32 0.05 264.82 0.15L264.82 0.15Q264.62-0.05 264.64-0.55 264.67-1.05 264.82-1.25L264.82-1.25Q265.12-1.25 265.84-1.33 266.57-1.4 267.22-1.6 267.87-1.8 267.92-2.05L267.92-2.05Q268.12-2.65 268.14-3.6 268.17-4.55 268.17-5.65L268.17-5.65 268.17-14.55Q268.17-15.05 268.14-15.95 268.12-16.85 267.92-17.3L267.92-17.3Q267.77-17.75 267.07-17.93 266.37-18.1 265.67-18.13 264.97-18.15 264.77-18.15L264.77-18.15Q264.72-18.25 264.67-18.75 264.62-19.25 264.77-19.45L264.77-19.45Q266.67-19.7 268.47-20.2 270.27-20.7 271.72-21.5L271.72-21.5Q271.92-21.5 272.09-21.2 272.27-20.9 272.27-20.7L272.27-20.7Q272.27-20.55 272.19-19.93 272.12-19.3 272.05-18.7 271.97-18.1 271.97-17.9L271.97-17.9Q271.97-17.7 272.07-17.7L272.07-17.7Q272.12-17.7 272.22-17.8L272.22-17.8Q272.72-18.35 273.84-19.2 274.97-20.05 276.32-20.73 277.67-21.4 278.82-21.4ZM302.57-21.4L302.57-21.4Q303.37-21.4 304.47-21.23 305.57-21.05 305.92-20.9L305.92-20.9Q306.17-20.9 306.17-21.9L306.17-21.9 306.17-27.25Q306.17-27.8 306.14-28.58 306.12-29.35 305.92-29.8L305.92-29.8Q305.72-30.35 304.82-30.5 303.92-30.65 302.92-30.65L302.92-30.65Q302.87-30.65 302.84-31.28 302.82-31.9 302.97-31.95L302.97-31.95Q304.82-32.15 306.59-32.68 308.37-33.2 309.92-33.9L309.92-33.9Q310.12-33.9 310.29-33.63 310.47-33.35 310.47-33.1L310.47-33.1Q310.47-33.1 310.19-32 309.92-30.9 309.92-28.85L309.92-28.85 309.92-7.95Q309.92-6.55 309.99-5.13 310.07-3.7 310.27-3.15L310.27-3.15Q310.52-2.6 311.44-2.48 312.37-2.35 312.87-2.3L312.87-2.3Q313.07-2.3 313.12-2.3L313.12-2.3Q313.22-2.25 313.24-2.02 313.27-1.8 313.27-1.7L313.27-1.7Q313.27-1.65 313.19-1.33 313.12-1 312.92-1L312.92-1Q311.67-0.95 310.19-0.6 308.72-0.25 307.67 0.08 306.62 0.4 306.57 0.4L306.57 0.4Q306.37 0.4 306.27 0.05 306.17-0.3 306.17-0.55L306.17-0.55 306.17-2.25Q306.17-2.7 306.02-2.55L306.02-2.55Q305.67-2.15 304.54-1.45 303.42-0.75 302.07-0.18 300.72 0.4 299.52 0.4L299.52 0.4Q297.32 0.4 295.34-0.98 293.37-2.35 292.14-4.73 290.92-7.1 290.92-10.05L290.92-10.05Q290.92-12.45 292.09-14.53 293.27-16.6 295.09-18.13 296.92-19.65 298.92-20.53 300.92-21.4 302.57-21.4ZM300.97-19.35L300.97-19.35Q299.12-19.35 297.79-18.18 296.47-17 295.74-15.15 295.02-13.3 295.02-11.25L295.02-11.25Q295.02-8.95 295.82-7 296.62-5.05 298.17-3.85 299.72-2.65 301.92-2.65L301.92-2.65Q303.57-2.65 304.87-3.33 306.17-4 306.17-4.6L306.17-4.6 306.17-16.95Q306.17-17.8 304.59-18.57 303.02-19.35 300.97-19.35ZM319.51-12.1L319.51-12.1Q319.47-9 320.56-6.9 321.67-4.8 323.51-3.78 325.37-2.75 327.51-2.75L327.51-2.75Q328.87-2.75 329.97-3.23 331.06-3.7 331.81-4.33 332.56-4.95 332.87-5.3L332.87-5.3Q332.92-5.3 333.09-5.13 333.26-4.95 333.26-4.65L333.26-4.65Q333.26-4.25 332.97-3.75L332.97-3.75Q332.51-3.05 331.56-2.08 330.62-1.1 329.17-0.35 327.72 0.4 325.81 0.4L325.81 0.4Q322.97 0.4 320.76-0.95 318.56-2.3 317.31-4.6 316.06-6.9 316.06-9.75L316.06-9.75Q316.06-12.2 316.94-14.33 317.81-16.45 319.24-18.03 320.67-19.6 322.37-20.5 324.06-21.4 325.67-21.4L325.67-21.4Q327.87-21.4 329.29-20.65 330.72-19.9 331.54-18.8 332.37-17.7 332.69-16.6 333.01-15.5 333.01-14.75L333.01-14.75Q333.01-13.7 332.76-13.1 332.51-12.5 331.81-12.45L331.81-12.45Q331.37-12.4 330.04-12.38 328.72-12.35 327.01-12.3 325.31-12.25 323.67-12.2 322.01-12.15 320.87-12.13 319.72-12.1 319.51-12.1ZM319.76-13.9L319.76-13.9 327.72-13.9Q328.17-13.9 328.49-14.15 328.81-14.4 328.87-15.05L328.87-15.05Q328.92-15.65 328.51-16.75 328.12-17.85 327.24-18.75 326.37-19.65 324.87-19.65L324.87-19.65Q323.31-19.65 322.31-18.78 321.31-17.9 320.74-16.78 320.17-15.65 319.94-14.78 319.72-13.9 319.76-13.9ZM354.61-20.75L354.61-20.75Q356.01-20.75 357.44-20.85 358.86-20.95 359.51-21L359.51-21Q359.61-20.8 359.56-20.2 359.51-19.6 359.31-19.6L359.31-19.6Q359.16-19.6 358.56-19.55 357.96-19.5 357.44-19.33 356.91-19.15 356.91-18.75L356.91-18.75Q356.91-18.65 356.96-18.55L356.96-18.55 362.16-5.35Q362.16-5.35 362.56-6.43 362.96-7.5 363.61-9.18 364.26-10.85 365.01-12.8 365.76-14.75 366.46-16.45L366.46-16.45Q366.66-16.9 366.71-17.32 366.76-17.75 366.76-18L366.76-18Q366.76-18.75 365.99-19.18 365.21-19.6 363.96-19.6L363.96-19.6Q363.76-19.6 363.76-20.2 363.76-20.8 363.96-21L363.96-21Q364.51-20.95 365.69-20.85 366.86-20.75 368.36-20.75L368.36-20.75Q369.76-20.75 370.74-20.85 371.71-20.95 372.46-21L372.46-21Q372.61-20.8 372.54-20.2 372.46-19.6 372.31-19.6L372.31-19.6Q372.11-19.6 371.49-19.45 370.86-19.3 370.19-18.95 369.51-18.6 369.21-17.9L369.21-17.9Q368.11-15.3 367.24-13.2 366.36-11.1 365.54-9.13 364.71-7.15 363.84-5.03 362.96-2.9 361.91-0.3L361.91-0.3Q361.01 1.95 360.16 4.2 359.31 6.45 358.01 8.4L358.01 8.4Q357.21 9.65 356.09 10.4 354.96 11.15 353.76 11.15L353.76 11.15Q353.06 11.15 352.36 10.75 351.66 10.35 351.66 9.05L351.66 9.05Q351.66 8.6 351.84 8.2 352.01 7.8 352.21 7.6L352.21 7.6Q353.36 7.6 354.24 7.48 355.11 7.35 355.94 6.75 356.76 6.15 357.76 4.85L357.76 4.85Q358.16 4.3 358.66 3.23 359.16 2.15 359.59 1.15 360.01 0.15 360.06-0.1L360.06-0.1Q358.71-3.6 357.51-6.63 356.31-9.65 355.09-12.58 353.86-15.5 352.41-18.6L352.41-18.6Q352.06-19.35 351.16-19.48 350.26-19.6 349.81-19.6L349.81-19.6Q349.71-19.6 349.71-19.6L349.71-19.6Q349.66-19.6 349.66-20.28 349.66-20.95 349.71-21L349.71-21Q350.41-20.95 351.76-20.85 353.11-20.75 354.61-20.75ZM406.01-32.55L406.01-32.55Q408.41-32.55 411.03-32.35 413.66-32.15 416.36-31.55L416.36-31.55Q416.36-31.55 416.53-30.53 416.71-29.5 416.91-28.13 417.11-26.75 417.28-25.63 417.46-24.5 417.46-24.3L417.46-24.3Q417.51-24.1 417.16-23.9 416.81-23.7 416.41-23.7L416.41-23.7Q416.06-23.7 415.81-23.85L415.81-23.85Q415.71-24.4 415.33-25.55 414.96-26.7 413.98-27.95 413.01-29.2 411.16-30.08 409.31-30.95 406.26-30.95L406.26-30.95Q403.56-30.95 401.36-29.73 399.16-28.5 397.58-26.43 396.01-24.35 395.18-21.83 394.36-19.3 394.36-16.75L394.36-16.75Q394.36-13.9 395.13-11.15 395.91-8.4 397.48-6.18 399.06-3.95 401.43-2.63 403.81-1.3 407.01-1.3L407.01-1.3Q409.26-1.3 410.83-2 412.41-2.7 413.46-3.65L413.46-3.65Q414.91-4.95 415.56-6.55 416.21-8.15 416.46-9.35L416.46-9.35Q417.31-9.45 418.01-8.95L418.01-8.95Q418.01-8.6 417.83-7.55 417.66-6.5 417.41-5.28 417.16-4.05 416.86-3.1 416.56-2.15 416.31-1.9L416.31-1.9Q414.31-0.8 411.76-0.25 409.21 0.3 405.81 0.3L405.81 0.3Q402.21 0.3 399.21-0.98 396.21-2.25 394.03-4.48 391.86-6.7 390.68-9.58 389.51-12.45 389.51-15.7L389.51-15.7Q389.51-19.15 390.73-22.18 391.96-25.2 394.16-27.55 396.36-29.9 399.38-31.23 402.41-32.55 406.01-32.55ZM434.85-21.35L434.85-21.35Q435.8-21.35 436.65-20.93 437.5-20.5 437.85-19.9L437.85-19.9Q437.95-19.7 438-19.35 438.05-19 438.05-18.6L438.05-18.6Q438.05-17.25 437.43-16.65 436.8-16.05 436.4-16.05L436.4-16.05Q435.9-16.05 435.45-16.4 435-16.75 434.6-17L434.6-17Q434.25-17.25 433.88-17.43 433.5-17.6 432.8-17.6L432.8-17.6Q431.75-17.6 430.88-16.73 430-15.85 429.45-14.8 428.9-13.75 428.9-13.2L428.9-13.2 428.9-5.65Q428.9-4.55 428.93-3.6 428.95-2.65 429.15-2.05L429.15-2.05Q429.25-1.8 430.15-1.6 431.05-1.4 432.05-1.33 433.05-1.25 433.35-1.25L433.35-1.25Q433.5-1.05 433.53-0.55 433.55-0.05 433.35 0.15L433.35 0.15Q431.85 0.05 430.3-0.03 428.75-0.1 427.3-0.1L427.3-0.1Q425.9-0.1 424.6-0.03 423.3 0.05 421.8 0.15L421.8 0.15Q421.6-0.05 421.63-0.55 421.65-1.05 421.8-1.25L421.8-1.25Q422.1-1.25 422.83-1.33 423.55-1.4 424.2-1.6 424.85-1.8 424.9-2.05L424.9-2.05Q425.1-2.65 425.13-3.6 425.15-4.55 425.15-5.65L425.15-5.65 425.15-14.75Q425.15-15.25 425.13-16.05 425.1-16.85 424.9-17.3L424.9-17.3Q424.75-17.75 424.05-17.93 423.35-18.1 422.65-18.13 421.95-18.15 421.75-18.15L421.75-18.15Q421.7-18.25 421.65-18.75 421.6-19.25 421.75-19.45L421.75-19.45Q423.65-19.7 425.45-20.2 427.25-20.7 428.7-21.5L428.7-21.5Q428.9-21.5 429.08-21.2 429.25-20.9 429.25-20.7L429.25-20.7Q429.25-20.55 429.15-19.55 429.05-18.55 428.98-17.53 428.9-16.5 428.9-16.2L428.9-16.2Q428.9-16.05 428.98-16.05 429.05-16.05 429.1-16.1L429.1-16.1Q429.6-17.15 430.53-18.38 431.45-19.6 432.6-20.48 433.75-21.35 434.85-21.35ZM443.95-12.1L443.95-12.1Q443.9-9 445-6.9 446.1-4.8 447.95-3.78 449.8-2.75 451.95-2.75L451.95-2.75Q453.3-2.75 454.4-3.23 455.5-3.7 456.25-4.33 457-4.95 457.3-5.3L457.3-5.3Q457.35-5.3 457.53-5.13 457.7-4.95 457.7-4.65L457.7-4.65Q457.7-4.25 457.4-3.75L457.4-3.75Q456.95-3.05 456-2.08 455.05-1.1 453.6-0.35 452.15 0.4 450.25 0.4L450.25 0.4Q447.4 0.4 445.2-0.95 443-2.3 441.75-4.6 440.5-6.9 440.5-9.75L440.5-9.75Q440.5-12.2 441.38-14.33 442.25-16.45 443.68-18.03 445.1-19.6 446.8-20.5 448.5-21.4 450.1-21.4L450.1-21.4Q452.3-21.4 453.73-20.65 455.15-19.9 455.98-18.8 456.8-17.7 457.13-16.6 457.45-15.5 457.45-14.75L457.45-14.75Q457.45-13.7 457.2-13.1 456.95-12.5 456.25-12.45L456.25-12.45Q455.8-12.4 454.48-12.38 453.15-12.35 451.45-12.3 449.75-12.25 448.1-12.2 446.45-12.15 445.3-12.13 444.15-12.1 443.95-12.1ZM444.2-13.9L444.2-13.9 452.15-13.9Q452.6-13.9 452.93-14.15 453.25-14.4 453.3-15.05L453.3-15.05Q453.35-15.65 452.95-16.75 452.55-17.85 451.68-18.75 450.8-19.65 449.3-19.65L449.3-19.65Q447.75-19.65 446.75-18.78 445.75-17.9 445.18-16.78 444.6-15.65 444.38-14.78 444.15-13.9 444.2-13.9ZM471.25-21.3L471.25-21.3Q472.65-21.3 473.87-20.4 475.1-19.5 475.85-18 476.6-16.5 476.6-14.6L476.6-14.6 476.6-4.55Q476.6-3.6 476.95-2.93 477.3-2.25 478.1-2.25L478.1-2.25Q478.8-2.25 479.2-2.55 479.6-2.85 479.7-2.9L479.7-2.9Q479.8-2.9 479.85-2.75 479.9-2.6 479.9-2.5L479.9-2.5Q479.9-1.95 479.65-1.55L479.65-1.55Q479.35-1.3 478.67-0.85 478-0.4 477.27-0.05 476.55 0.3 476 0.3L476 0.3Q474.95 0.3 474.12-0.75 473.3-1.8 473.05-2.9L473.05-2.9Q472.85-2.7 472.12-2.15 471.4-1.6 470.45-1.03 469.5-0.45 468.57-0.03 467.65 0.4 467 0.4L467 0.4Q464.6 0.4 462.95-1.23 461.3-2.85 461.3-5.2L461.3-5.2Q461.3-6.7 462.12-7.78 462.95-8.85 463.75-9.15L463.75-9.15Q465.15-9.65 466.87-10.23 468.6-10.8 470.1-11.35 471.6-11.9 472.3-12.2L472.3-12.2Q472.7-12.35 472.8-12.58 472.9-12.8 472.9-13.45L472.9-13.45 472.9-14.75Q472.9-15.85 472.35-16.93 471.8-18 470.85-18.73 469.9-19.45 468.7-19.45L468.7-19.45Q467.45-19.45 466.85-18.65 466.25-17.85 466-16.4L466-16.4Q465.55-14.05 463.7-14.05L463.7-14.05Q462.9-14.05 462.47-14.7 462.05-15.35 462.05-16.1L462.05-16.1Q462.05-16.25 462.15-16.68 462.25-17.1 462.4-17.3L462.4-17.3Q463.15-18 464.55-18.95 465.95-19.9 467.72-20.6 469.5-21.3 471.25-21.3ZM468.65-2.25L468.65-2.25Q469.5-2.25 470.5-2.65 471.5-3.05 472.2-3.53 472.9-4 472.9-4.25L472.9-4.25 472.9-10.9Q471.95-10.6 470.5-10.15 469.05-9.7 468.35-9.45L468.35-9.45Q467.05-8.95 466.2-8 465.35-7.05 465.35-5.65L465.35-5.65Q465.35-4.3 466.3-3.28 467.25-2.25 468.65-2.25Z" opacity="1" transform="matrix(1,0,0,1,0,0)" fill="#ffffff" class="slogan-text-1" data-fill-palette-color="secondary" id="text-1"></path></svg></g></svg></g></svg></g></svg></g><g transform="matrix(1,0,0,1,49.88329507509171,0)"><svg viewBox="0 0 144.6647698498166 118.97438256453125" height="118.97438256453125" width="144.6647698498166"><g><svg xmlns="http://www.w3.org/2000/svg" xmlns:xlink="http://www.w3.org/1999/xlink" version="1.1" x="0" y="0" viewBox="11.250000000000002 18.135000000000005 77.495 63.73299999999993" enable-background="new 0 0 100 100" xml:space="preserve" height="118.97438256453125" width="144.6647698498166" class="icon-icon-0" data-fill-palette-color="accent" id="icon-0"><polygon points="88.731,63 88.107,62.903 88.214,62.387 88.006,63.243 88.276,63.291 88.454,63.316 88.622,63.348 88.65,63.269   88.688,63.207 88.745,63.074 " fill="#ffffff" data-fill-palette-color="accent"></polygon><polygon points="88.229,62.316 88.214,62.387 88.231,62.316 " fill="#ffffff" data-fill-palette-color="accent"></polygon><g fill="#e2e191" data-fill-palette-color="accent"><path d="M49.656 25.412l-0.179-0.143-0.34-0.257-0.069-0.056-0.226-0.29-0.007-0.057 0.041-0.079 0.004-0.05-0.005-0.057-0.033-0.053-0.081-0.007-0.064-0.025-0.066-0.076-0.055-0.064-0.259 0.068-0.148 0.039-0.115 0.049-0.046-0.061-0.078-0.1-0.077-0.068-0.174-0.102-0.118-0.084-0.092-0.076-0.138-0.128-0.17-0.178-0.059-0.062-0.07-0.079-0.105-0.13-0.041-0.028-0.057 0.025-0.058 0.077 0.047 0.035-0.097 0.074-0.079-0.001-0.149-0.04-0.024 0.084-0.014 0.085-0.082 0.152-0.029 0.048-0.041 0.066-0.02 0.103-0.017 0.085-0.005 0.107-0.057 0.025-0.088 0.123-0.076 0.106-0.035 0.068-0.012 0.061 0.002 0.102 0.002 0.114 0.001 0.048 0.002 0.094-0.017 0.067-0.028 0.068-0.021 0.122-0.048 0.08-0.114 0.13-0.053 0.023-0.06 0.029-0.157 0.071-0.07 0.02-0.073 0.005-0.05-0.009-0.058-0.016-0.051-0.006-0.048 0.006-0.078 0.034-0.052 0.074 0.119 0.085 0.021 0.061-0.257 0.107-0.034 0.05-0.067 0.09-0.073-0.086-0.061 0.086-0.06 0.085-0.022 0.087-0.169 0.282-0.063 0.03 0.081 0.12 0.082 0.184-0.071 0.068-0.278 0.267-0.16 0.06-0.07 0.058-0.074 0.016-0.075-0.033-0.054 0.069-0.064 0.104-0.024 0.061-0.121 0.092-0.056-0.019-0.054-0.043-0.051 0.037 0.029 0.066-0.064 0.003-0.03-0.014-0.055 0.02-0.055 0.023-0.055-0.051-0.083 0.033 0.058 0.043 0.054 0.039-0.069 0.049L42.98 27.73l-0.044-0.056-0.065-0.001-0.089 0.058-0.037 0.058-0.059-0.001-0.059 0.048-0.077-0.006-0.053 0.03-0.052 0.091-0.095 0.027-0.065 0.043-0.102-0.02-0.055-0.014-0.051-0.033-0.047-0.025-0.05 0.03-0.048 0.048-0.114 0.006-0.051 0.015-0.029 0.019-0.037 0.051-0.015-0.053-0.061-0.019-0.051 0.026-0.032-0.173-0.503 0.045-0.299-0.019-0.099 0.045-0.068 0.001-0.072 0.029-0.082-0.009L40.319 28l-0.062-0.019-0.104 0.012-0.087-0.025-0.01 0.049-0.048 0.016-0.097 0.024-0.039 0.048-0.448-0.296-0.05 0.021-0.054-0.034-0.174-0.11-0.127-0.076-0.063-0.03-0.189-0.05-0.161-0.043-0.069-0.035-0.109-0.04-0.071-0.017-0.126-0.017-0.228-0.018-0.125-0.017-0.048-0.014-0.208-0.089-0.216-0.062-0.051-0.022-0.124-0.065-0.094-0.034-0.051-0.005-0.181 0.027-0.194 0.021-0.081 0.002-0.149 0.04-0.513 0.076-0.019-0.019 0.065-0.052 0.217-0.083 0.102-0.067 0.048-0.02 0.282-0.081 0.139-0.11 0.035-0.066L36.77 26.7l0.044-0.091-0.035-0.049-0.006-0.048-0.042-0.247-0.202-0.406-0.14-0.26-0.057-0.149 0.002-0.084 0.137-0.082-0.025-0.09-0.02-0.113-0.059-0.152 0.112-0.018 0.002-0.068 0.107-0.042-0.008-0.096 0.095-0.128 0.026-0.092 0.029-0.16-0.012-0.048-0.021-0.192-0.086 0.026-0.189-0.365-0.097-0.261-0.624-1.19 1.108-0.743L36.76 21.53l-0.091-0.133-0.154-0.159-0.059-0.112-0.316 0.035-0.173 0.035-0.076 0.008-0.069 0.001-0.106-0.019-0.1-0.005h-0.218l-0.203-0.001-0.105 0.002-0.059 0.002-0.049-0.002-0.09-0.006-0.051-0.021-0.373-0.08-0.139-0.018-0.051 0.009-0.052 0.002-0.061-0.006-0.07-0.025-0.073-0.029-0.071-0.023-0.086-0.014-0.091-0.014-0.123-0.041-0.044 0.711-0.027 0.432-0.027 0.386 0.368 0.025-0.004 0.071-0.022 0.336-0.086 0.356 0.042 0.104-0.029 0.316-0.088 0.98-0.079 0.012-0.15 0.02-0.526 0.124-0.068 0.006-0.241-0.007-0.299 0.085-0.257 0.024-0.481-0.112-0.358-0.083 0.008 0.114 0.007 0.064 0.007 0.082 0.028 0.11 0.033 0.074 0.088 0.163 0.037 0.069 0.055 0.151 0.051 0.199 0.023 0.109-0.012 0.246-0.009 0.164-0.001 0.077-0.008 0.124-0.013 0.189-0.017 0.219-0.009 0.171-0.012 0.183-0.001 0.107-0.091-0.067-0.101-0.016-0.142-0.06-0.14-0.031-0.062 0.012-0.201-0.001h-0.087l-0.094 0.034L30.4 27.195l-0.068 0.002-0.146 0.029-0.065 0.003-0.19-0.015-0.06-0.013L29.78 27.19l-0.135 0.035-0.057 0.017-0.056-0.003-0.118-0.009-0.27-0.154-0.057-0.021-0.063-0.013-0.075 0.013-0.067 0.022-0.047 0.018-0.104 0.027-0.535 0.02-0.359 0.071-0.196 0.013-0.077-0.006-0.13-0.009-0.078-0.012-0.078-0.012-0.154-0.037-0.051-0.084-0.054 0.002-0.105-0.031-0.184 0.04-0.142-0.01-0.1-0.007 0.003 0.08-0.007 0.084-0.02 0.081-0.013 0.216-0.01 0.11-0.028 0.119-0.203 0.445-0.03 0.066-0.134 0.326-0.174 0.162-0.051 0.04-0.134 0.279L25.51 29.43l-0.334 0.662-0.088 0.187-0.092 0.196-0.078 0.13-0.036 0.06-0.046 0.068-0.057 0.056-0.084 0.048-0.235 0.104-0.048 0.021-0.054 0.035-0.071 0.075-0.017 0.051-0.007 0.076 0.001 0.085 0.019 0.158 0.055 0.144 0.06 0.084 0.095 0.106 0.236 0.347 0.164 0.273 0.072 0.12 0.214 0.235 0.159 0.175 0.086 0.076 0.321 0.241 0.137 0.104 0.322 0.335 0.083 0.147 0.044 0.189-0.039 0.131-0.094 0.325-0.086 0.274-0.047 0.149-0.097 0.177-0.374-0.05-0.191 0.016-0.088-0.015-0.104-0.035-0.101-0.017-0.101-0.035-0.125-0.021-0.104-0.034-0.056-0.029-0.271-0.155-0.076-0.05-0.055-0.036-0.072-0.049-0.062-0.047-0.07-0.025-0.154-0.025-0.089-0.053-0.069-0.02-0.074-0.029-0.304-0.054-0.146-0.039-0.13-0.044-0.064-0.034-0.128-0.108-0.07-0.066-0.16-0.076-0.112-0.055-0.085-0.047-0.059-0.047-0.156-0.167-0.072-0.036-0.064-0.023-0.08-0.013-0.115-0.034-0.088-0.035-0.123-0.054-0.088-0.053-0.083-0.026-0.128-0.004-0.152-0.015-0.149-0.031-0.08-0.029-0.115-0.11-0.054-0.05-0.251-0.107-0.219-0.047-0.074-0.035-0.084-0.094L20.24 32.79l-0.234-0.16-0.341 0.082-0.218 0.053-0.274 0.081L19.07 32.89l-0.079 0.053-0.058 0.054-0.044 0.059-0.085 0.153-0.079 0.135-0.18 0.259-0.285 0.35-0.333 0.199-0.322 0.202-0.464 0.11-0.161 0.062-0.287 0.26-0.324 0.081-0.188 0.008-0.177-0.128-0.108 0.063-0.017 0.225 0.101 0.015-0.15 0.526 0.194-0.023 0.056 0.042 0.038 0.053 0.063 0.2 0.032 0.163 0.044 0.139 0.089 0.086 0.311-0.077 0.089-0.019 0.175-0.067 0.085 0.006 0.104 0.011 0.099-0.066 0.238-0.107 0.09-0.03 0.106-0.017 0.098-0.089 0.325-0.141 0.254-0.084 0.038 0.075 0.074 0.049 0.055 0.078 0.022 0.159 0.057 0.153 0.06 0.135 0.066 0.164 0.032 0.143 0.022 0.161-0.013 0.117 0.016 0.18-0.014 0.07 0.014 0.102-0.018 0.087-0.017 0.25-0.046 0.063-0.016 0.063 0.012 0.091-0.039 0.198-0.057 0.122-0.071 0.041-0.02 0.058 0.002 0.106-0.096 0.267-0.033 0.143L18.263 38.8l-0.05 0.085-0.108 0.157-0.031 0.069-0.01 0.077-0.052 0.504-0.058 0.051-0.098 0.101 0.029 0.05 0.048 0.22 0.026 0.055 0.02 0.057 0.011 0.125-0.001 0.156 0.035 0.203 0.016 0.119-0.013 0.114-0.02 0.071-0.071 0.094-0.034 0.081-0.01 0.071-0.074 0.091-0.093 0.017-0.031 0.061-0.036 0.018-0.085-0.002-0.078-0.01-0.113-0.028-0.062-0.008-0.286-0.024-0.168-0.011-0.079-0.018-0.075-0.041-0.137-0.089-0.131-0.144-0.142-0.202-0.118-0.104-0.071-0.054-0.069 0.256-0.127 0.467-0.118 0.435-0.061 0.234-0.109 0.381-0.116 0.416 0.014 0.162-0.1 0.642-0.041 0.196-0.013 0.063-0.048 0.218-0.02 0.087-0.05 0.137-0.146 0.364-0.054 0.133-0.075 0.186-0.053 0.144-0.028 0.122-0.028 0.112-0.017 0.091-0.012 0.087-0.003 0.066-0.012 0.1-0.01 0.06-0.008 0.051-0.005 0.145L14.8 46.167l-0.004 0.061-0.009 0.134-0.002 0.104-0.006 0.269-0.026 0.167 0.006 0.091-0.005 0.055 0.013 0.118-0.033 0.226-0.03 0.139-0.016 0.073-0.01 0.063-0.013 0.082-0.016 0.103-0.035 0.198 0.134 0.009 0.071-0.003 0.101-0.004 0.048-0.007 0.327-0.049 0.192-0.017 0.162 0.003 0.051-0.009 0.15-0.038 0.099-0.025 0.095-0.023 0.13-0.007 0.134-0.024 0.309-0.076 0.144-0.027 0.068-0.016 0.11-0.024 0.097-0.029 0.129-0.037 0.216-0.063 0.138-0.019 0.05 0.038 0.057 0.029 0.055 0.03 0.052 0.058 0.028 0.1 0.025 0.09 0.065 0.092 0.094 0.009 0.117 0.032 0.074 0.04 0.05 0.031 0.213 0.142 0.105 0.066 0.091 0.051 0.091 0.072 0.07 0.055 0.072 0.057 0.142 0.092 0.049 0.031 0.05 0.032 0.117 0.079 0.053 0.029 0.105 0.027 0.096 0.047 0.182 0.119 0.144 0.094 0.103 0.068 0.102 0.064 0.054 0.029 0.304 0.167 0.078 0.043 0.101 0.055-0.087 0.071-0.034 0.066-0.449 0.504-0.373 0.409-0.199 0.205-0.064 0.074-0.107 0.124-0.085 0.096-0.175 0.197-0.068 0.077-0.058 0.069-0.068 0.081L18.68 51.58l-0.046 0.055-0.118 0.139-0.203 0.203-0.05 0.066-0.276 0.35-0.377 0.476-0.309 0.398-0.385 0.499-0.148 0.186-0.081 0.105-0.144 0.187-0.131 0.17-0.198 0.268-0.147 0.19-0.18 0.227-0.163 0.16-0.087 0.061-0.354 0.088-0.332 0.081-0.301 0.101 0 0.357 0 0.083-0.007 0.063-0.053 0.139-0.087 0.237-0.071 0.164-0.25 0.325 0.006 0.235-0.212 0.198-0.1 0.197-0.057 0.137 0.053 0.235 0.024 0.144 0.003 0.079-0.003 0.264-0.093 0.363 0.218 0.226 0.028 0.23-0.069 0.669-0.019 0.082-0.026 0.058-0.047 0.125-0.084 0.133-0.061 0.109-0.06 0.135 0.192 0.145 0.064 0.063 0.053 0.063 0.069 0.114 0.145 0.078 0.089 0.048 0.053 0.066-0.161 0.11 0.192 0.264 0.151 0.015 0.109 0.135 0.048-0.056 0.141 0.119 0.147 0.261 0.097 0.102 0.041 0.054 0.052 0.101 0.049 0.053 0.161 0.175-0.083 0.2 0.003 0.175-0.127 0.156-0.092 0.053-0.469 0.283-0.38 0.584-0.206 0.115 0.09 0.618-0.539 0.469-0.169 0.213-0.151 0.061-0.097 0.252-0.157-0.081-0.106-0.026-0.112-0.048-0.08-0.082-0.12-0.041-0.047 0.013-0.118 0.115-0.005 0.061-0.057 0.183-0.133 0.167-0.111 0.134-0.859 0.432 0.234 1.148 0.004 0.186 0.046 0.164 0.074 0.022 0.05 0.015 0.053 0.027 0.104 0.11 0.476 0.219 0.082-0.074 0.094-0.065-0.017-0.06 0.015-0.055-0.045-0.066-0.07-0.057-0.073-0.101-0.086-0.159 0.015-0.048 0.09-0.01 0.135-0.061 0.167-0.053 0.101 0.006-0.025 0.049 0.007 0.089 0.039 0.177 0.002 0.191-0.003 0.093 0.271 0.087 0.153 0.058 0.051-0.023 0.085 0.052 0.048-0.013 0.082-0.007 0.022-0.057-0.002-0.083 0.033-0.288 0.002-0.049-0.009-0.082-0.013-0.05 0.003-0.064 0.083 0.004 0.165 0.061 0.036 0.18 0.026 0.13 0.091-0.013 0.064-0.009 0.034 0.177L13.882 68.2l-0.086 0.014 0.025 0.154-0.255 0.04-0.191-0.05-0.037 0.167 0.253 0.048 0.096 0.08-0.118 0.155 0.064 0.054 0.087 0.091 0.066 0.088 0.073 0.11 0.028 0.048 0.037 0.172 0.066 0.078 0.474 0.287 0.148 0.045 0.054 0.012 0.064 0.128 0.169 0.249 0.059 0.086 0.139 0.166 0.297 0.256 0.069 0.079 0.071 0.042 0.05 0.03 0.148 0.02 0.082-0.024 0.111-0.064 0.446-0.319 0.128-0.132 0.11 0.107 0.176 0.09 0.066 0.016 0.129 0.086-0.327 0.053 0.063 0.23 0.217 0.009 0.081 0.006 0.049 0.027-0.545 0.494-0.289 0.313-0.052 0.072-0.086 0.156-0.057-0.048 0.151-0.195-0.316 0.013-0.099 0.009-0.027 0.143-0.023 0.261 0.145 0.139 0.124 0.112 0.154 0.148 0.065 0.029 0.077-0.045 0.084 0.016 0.075 0.012 0.053-0.288-0.049 0.011-0.05-0.014-0.296-0.295 0.138-0.181 0.3-0.346 0.474-0.405 0.13-0.102 0.295-0.206 0.142-0.049-0.012 0.113 0.049 0.07 0.033 0.047 0.234 0.11 0.069 0.01 0.149 0.022 0.59 0.087 0.25 0.061 0.148 0.048 0.343 0.057 0.116-0.004 0.302-0.032 0.591-0.044 0.078-0.006 0.067-0.045 0.261-0.194-0.051-0.39-0.084 0.025-0.248 0.061-0.904 0.139-0.303 0.01-0.005-0.055 0.008-0.098 0.055-0.14 0.046-0.147 0.06-0.145 0.004-0.079 0.008-0.543 1.519-0.809 0.141-0.075 0.745-0.386 0.612-0.327 0.026-0.015 1.068-0.624 0.175-0.114 0.059-0.023 0.107-0.022 0.171 0.012 0.072-0.016 0.119-0.001 0.394-0.066 0.145-0.035 0.184-0.038 0.21-0.062 0.279-0.112 0.162-0.091 0.077-0.02 0.166-0.089 0.059-0.038 0.154-0.12 0.119-0.028 0.056-0.013 0.185-0.081 0.134-0.053 0.085-0.034 0.19-0.065 0.102-0.055 0.07 0.004 0.132 0.022 0.109 0.012 0.176 0.032 0.104 0.017 0.282 0.022 0.116 0.005 0.169-0.064 0.137-0.034 0.244 0.009 0.301-0.02 0.4-0.026 0.222-0.028 0.023 0.068 0.05 0.146 0.055 0.203 0.053 0.301 0.033 0.178 0.015 0.135 0.065 0.302 0.066 0.444-0.001 0.053-0.007 0.487-0.024 0.085 0.048 0.097 0.004 0.07 0.037 0.403 0.009 0.075 0.17-0.102 0.091-0.046 0.12-0.045 0.161-0.037 0.063-0.01 0.081-0.012 0.169-0.015 0.152 0.003 0.1 0.014 0.108 0.029 0.106 0.041 0.268 0.167 0.104 0.05 0.217 0.089 0.048 0.003 0.227 0.004 0.051-0.001 0.075 0.013 0.093 0.003 0.188-0.025 0.05-0.039L32.55 69.3l0.207-0.072 0.051-0.024 0.068-0.035 0.243-0.192 0.315-0.249 0.099-0.078 0.213-0.194 0.422-0.384 0.144-0.135 0.533-0.49 0.09-0.074 0.358-0.241 0.029 0.058-0.005 0.056L35.3 67.331 35.255 67.4l-0.067 0.032 0.31 0.494 0.147 0.221 0.076 0.115 0.063 0.094 0.124 0.181 0.336 0.504 0.195 0.294 0.309 0.529 0.195 0.304 0.095 0.131 0.123-0.131 0.085-0.102 0.53-0.357 0.562-0.346 0.464-0.275 0.494-0.291 0.147-0.09 0.318-0.194 0.729-0.468 0.124-0.082 0.007 0.187-0.013 0.569 0.343 0.347 0.363 0.368 0.181 0.179 0.229 0.177 0.178 0.179 0.246 0.202 0.141 0.115 0.11 0.089 0.091 0.082 0.217 0.138 0.189 0.128 0.186 0.092 0.487 0.301 0.392 0.242-0.199 0.991 0.519 0.053 0.145 0.006 0.08 0.003 0.202-0.003 0.416-0.034 0.034-0.003 0.352-0.028 0.193-0.016 0.033 0.353 0.01 0.1 0.036 0.359 0.028 0.392-0.013 0.091 0.017 0.153-0.013 0.163-0.005 0.15 0.04 0.114-0.004 0.153 0.404 0.019 0.743 0.041 0.187 0.022 0.098 0.014 0.165 0.027 0.208 0.033 0.067 0.011 0.225 0.012 0.119 0.019 0.251 0.045 0.077-0.014 0.269-0.034-0.012 0.072 0.591 0.034 0.341 0.025 0.015-0.038 0.112-0.291 0.278-0.651 0.215-0.504 0.094-0.219 0.051-0.115-0.003-0.117-0.05-0.285-0.039-0.125-0.151-0.587-0.177-0.643-0.259-0.934-0.171-0.618-0.053-0.19-0.038-0.154-0.077-0.4-0.022-0.288 0.003-0.085 0.037-0.154 0.094-0.034 0.052-0.015 0.207-0.052 0.263-0.107 0.203-0.076 0.222-0.071 0.195-0.052 0.108-0.022 0.19-0.054 0.766-0.355 0.06-0.011 0.199-0.07 0.18-0.097 0.154-0.079 0.23-0.127 0.237-0.127 0.066-0.023 0.054-0.025 0.067-0.059 0.288-0.145 0.15-0.072 0.192-0.093 0.184-0.084 0.082-0.027 0.346-0.114 0.388-0.06 0.077 0.02 0.23 0.093 0.172 0.07 0.055 0.148 0.052 0.175 0.068 0.241 0.188 0.583 0.141 0.359 0.211 0.606 0.177 0.454 0.145 0.448 0.078 0.069 0.022 0.086-0.002 0.063 0.065 0.259 0.062 0.183 0.027 0.103 0.012 0.157 0.081 0.584 0.285-0.126 0.148-0.065 0.353-0.086 0.395-0.06 0.05-0.003 0.22-0.065 0.3-0.087 0.278-0.046 0.12-0.014 0.171-0.047 0.091-0.025 0.175-0.031 0.418-0.073 0.148-0.037 0.408-0.102 0.392-0.108 0.233-0.149 0.16 0.057 0.261 0.138 0.119 0.084 0.054 0.025 0.171 0.079 0.084 0.045 0.074 0.04 0.055 0.027 0.087 0.036 0.074 0.027 0.085 0.055 0.079 0.061 0.063 0.052 0.051 0.043 0.079 0.071 0.049 0.044 0.069-0.046 0.102-0.068 0.086-0.058 0.123-0.08 0.103-0.066 0.135-0.072 0.127-0.069 0.067-0.036 0.052-0.013 0.134-0.109-0.022 0.116-0.032 0.116-0.082 0.17 0.027 0.078-0.11 0.045 0.027 0.079-0.119 0.428-0.047 0.354-0.049 0.416 0.084 0.386 1.829 0.083 0.655 0.04 0.206 0.013 0.059 0.005 0.071 0.004 0.194-0.004 0.189 0.009 0.052 0.001 0.084-0.01 0.09-0.019 0.131-0.027 0.135-0.035 0.372-0.115 0.433-0.149 0.125-0.027 0.074-0.021 0.488-0.124 0.201-0.061 0.335-0.112 0.264-0.097 0.068-0.031 0.2-0.105 0.244-0.089 0.101-0.04 0.023 0.036 0.15 0.219 0.001 0.064-0.058 0.334 0.005 0.063 0.062 0.105 0.001 0.067 0.049 0.019 0.049 0.014 0.024 0.071-0.014 0.068-0.039 0.102 0.003 0.064 0.163 0.251 0.369 0.104 0.075 0.126 0.062 0.097 0.096 0.067 0.047 0.056 0.117 0.114 0.05 0.135 0.032 0.063 0.053 0.071 0.073 0.07 0.049 0.067 0.071 0.125 0.024 0.08 0.048 0.571 0.007 0.057 0.02 0.12 0.001 0.053-0.011 0.063-0.007 0.054-0.095 0.246 0.064-0.028 0.106-0.036 0.162-0.083 0.058-0.038 0.072-0.03 0.105-0.067 0.193-0.108 0-0.05 0.267-0.146 0.631-0.362 0.762-0.437 0.111-0.075 0.11-0.041 0.062 0.091 0.12 0.238 0.187 0.336 0.161 0.277 0.268-0.06 0.414-0.094 0.363-0.062 0.082 0.068 0.014 0.279 0.013 0.477 0.006 0.139-0.025 0.137-0.082 0.236 0.098 0.035 0.075 0.027 0.322 0.03 0.007 0.056 0.01 0.06 0.016 0.152 0.033 0.089 0.02 0.105 0.002 0.168-0.026 0.083-0.047 0.101-0.035 0.06-0.052 0.06-0.113 0.105-0.1 0.097-0.293 0.295-0.202 0.264-0.065 0.087-0.069 0.112-0.078 0.164-0.032 0.102-0.032 0.12-0.045 0.314-0.031 0.571-0.001 0.252-0.005 0.106-0.026 0.283 0 0.37-0.029 0.191-0.003 0.087 0.02 0.089 0.044 0.141 0.07 0.192 0.086 0.158 0.191 0.247 0.18 0.176 0.049 0.071 0.052 0.112 0.056 0.086 0.049 0.004 0.165 0.009 0.071 0.137 0.073 0.084 0.219 0.082 0.051 0.004 0.055-0.014 0.084-0.039 0.126-0.086 0.094-0.102 0.044-0.099 0.003-0.074-0.042-0.319 0.011-0.131 0.064-0.108 0.05-0.098 0.016-0.053 0.078-0.198 0.056-0.109 0.227-0.272 0.047-0.1 0-0.141 0.085-0.186 0.01-0.051-0.001-0.055 0.032-0.293 0.052-0.066 0.174-0.106 0.012-0.061 0.054-0.088 0.065-0.046 0.13-0.06 0.052-0.052 0.076-0.159 0.004-0.053-0.003-0.084 0.03-0.117 0.027-0.062 0.035-0.073 0.069-0.1 0.069-0.063 0.076-0.039 0.133-0.046L77.857 78l-0.027-0.141 0.003-0.108 0.022-0.081 0.011-0.137 0.018-0.111 0.036-0.125 0.05-0.104 0.05-0.09 0.104-0.158 0.05-0.053 0.092-0.046 0.057-0.056 0.041-0.123 0.029-0.065 0.079-0.134 0.07-0.033 0.192-0.057 0.132-0.056 0.12-0.068 0.111-0.084 0.149-0.132 0.053-0.031 0.158-0.04 0.182-0.013 0.082 0.005 0.141 0.084 0.094 0.022 0.218 0.197 0.049 0.048 0.104 0.054 0.084-0.009 0.074-0.025 0.055-0.029 0.095-0.02 0.03 0.05 0.168 0.048-0.003-0.048-0.077-0.063 0.048-0.022 0.148-0.021 0.01-0.055-0.039-0.093 0.008-0.051 0.039-0.074 0.054-0.052 0.053-0.059 0.105-0.117 0.094-0.158 0.038-0.066 0.037-0.063 0.144-0.248 0.074-0.135 0.027-0.063 0.027-0.071 0.107-0.19 0.058-0.292-0.074-0.032-0.067-0.046-0.243 0.04 0.141-0.751-0.322 0.069-0.113 0.008-0.081-0.048-0.303-0.229-0.139-0.113-0.055-0.033-0.152 0.055-0.087-0.039-0.068-0.066-0.084-0.06 0.027-0.058 0.035-0.164 0.097 0.026 0.025-0.085 0.041-0.079 0.036 0.057 0.078 0.07 0.064 0.001 0.062-0.016 0.072-0.031 0.054-0.059 0.148-0.166 0.06-0.071 0.132-0.157 0.071-0.103 0.064-0.085 0.056-0.048 0.054-0.085 0.065-0.079-0.003-0.07 0.02-0.061-0.008-0.192 0.054-0.081 0.065-0.026 0.068-0.005 0.046 0.068-0.025 0.063-0.058 0.128 0.051 0.025 0.063-0.038 0.081-0.084 0.079-0.113 0.053-0.124 0.023-0.068 0.082-0.081 0.082-0.024 0.065 0.012 0.078-0.027 0.04-0.051 0.06-0.111 0.059-0.028 0.04-0.061 0.107-0.05 0.078-0.011 0.093-0.004 0.082-0.063 0.053-0.056 0.035-0.065 0.103-0.048 0.062-0.117 0.054-0.03 0.059-0.06 0.061-0.031 0.052-0.023 0.073-0.053 0.029-0.06 0.049-0.071 0.124-0.075 0.054-0.05 0.095-0.016 0.081 0.063 0.039 0.072 0.064 0.027 0.125-0.027 0.099 0.005 0.1 0.047 0.09 0.044 0.102 0.04 0.079-0.058 0.082-0.049 0.063-0.041 0.056-0.081 0.076 0.016 0.084-0.04 0.092-0.077 0.057 0.023 0.068 0.026 0.059-0.021 0.058-0.028 0.04 0.066 0.126-0.066 0.048-0.047 0.035-0.071 0.123-0.117 0.069-0.065 0.073-0.124 0.003-0.066-0.01-0.112 0.003-0.092 0.059-0.203 0.086-0.251 0.179-0.087 0.101-0.035 0.027-0.081 0.016-0.061 0.015-0.055-0.056-0.141-0.027-0.103-0.035-0.07-0.095-0.124-0.061-0.033-0.085-0.046-0.081-0.054-0.038-0.057-0.013-0.068-0.015-0.053-0.054-0.052-0.071-0.107-0.044-0.072-0.085-0.141-0.061-0.11-0.043-0.065-0.099-0.166-0.017-0.051-0.007-0.068 0.003-0.061 0.023-0.079 0.026-0.089 0.049-0.137 0.071-0.136 0.013-0.075-0.002-0.103-0.002-0.03-0.024-0.08 0.036-0.055 0.053-0.08 0.223-0.34 0.46-0.74 0.208 0.034 0.174 0.004 0.03-0.162 0.03-0.13 0.013-0.055-0.302-0.11 0.059-0.164 0.042-0.299 0.013-0.094 0.011-0.081-0.234-0.051-0.06-0.013-0.238-0.052-0.297-0.07-0.072-0.016-0.134-0.045-0.134-0.053-0.237-0.125-0.098-0.058-0.058-0.04L84.728 63.5l-0.227-0.184-0.122-0.085 0.006-0.063 0.056 0.066 0.106 0.058 0.266 0.215 0.237 0.143 0.173 0.082 0.087 0.037 0.192 0.063 0.553 0.11 0.065 0.013 0.022-0.079 0.242 0.048 0.279-0.02 0.032-0.243-0.021-0.075 0.031-0.216 0.052-0.367 0.049-0.043 0.242-0.21 0.485-0.412 0.698-0.024-0.225 0.927 0.27 0.048 0.178 0.025 0.168 0.032 0.029-0.079 0.037-0.062 0.057-0.133L88.731 63l-0.624-0.097 0.172-0.828-0.065-0.014-0.245-0.052 0.047-0.092 0.117-0.263 0.048-0.101 0.037-0.077-0.01-0.07-0.142 0.011-0.031-0.087-0.079-0.059-0.065-0.071-0.099-0.052-0.064-0.026-0.091-0.037-0.505-0.155-0.155-0.033-0.096-0.03-0.175 0.058-0.181-0.055-0.223-0.046-0.2-0.031-0.049-0.023-0.114-0.024-0.103-0.071-0.011-0.059-0.136-0.024-0.158 0.059-0.308-0.048L85.174 60.6l-0.108-0.029-0.233-0.283-0.285-0.331-0.225-0.251-0.186-0.212-0.064-0.063-0.417-0.863-0.043-0.057-0.16-0.201-0.086 0.032-0.03-0.051-0.11-0.016-0.149-0.047-0.062-0.027-0.169-0.106-0.376-0.248-0.116-0.094-0.166-0.135-0.057-0.047-0.181-0.151-0.041-0.054-0.033-0.078-0.149-0.001-0.089-0.001 0.089 0.209 0.105 0.161 0.131 0.316 0.046 0.052 0.019 0.233 0.047 0.37 0.034 0.197 0.236 0.084 0.04 0.273 0.001 0.056-0.028 0.153-0.04 0.3-0.064 0.16L82.1 59.833l-0.229-0.018-0.144-0.029-0.077-0.017-0.115-0.03 0.033-0.191 0-0.048-0.013-0.078-0.095-0.237 0.012-0.325-0.048-0.076-0.043-0.347-0.061-0.156-0.062-0.158-0.036-0.05-0.074-0.049-0.404-0.083-0.128-0.038-0.085-0.014-0.138-0.003-0.173 0.015-0.054-0.044-0.059-0.023-0.365-0.167-0.224-0.218-0.074-0.124-0.076-0.105-0.032-0.05-0.039-0.058-0.261-0.156-0.204-0.151-0.188-0.129-0.305-0.265-0.077-0.058-0.053-0.031-0.253-0.164-0.281 0.076-0.114 0.01-0.129 0.011-0.07-0.025-0.072-0.038-0.061-0.032-0.146-0.085-0.102-0.043-0.06-0.045-0.157-0.146-0.118-0.113-0.122-0.073-0.262-0.062-0.13-0.062-0.22-0.119-0.069-0.038-0.154-0.091-0.285-0.026-0.11-0.032-0.086-0.025-0.079 0.085-0.092 0.078-0.059 0.038-0.172 0.112-0.241 0.169-0.088 0.079-0.108 0.042-0.093 0.037-0.479 0.159-0.071 0.062-0.044 0.052-0.117 0.11-0.135 0.063-0.049-0.004-0.062-0.012-0.062-0.032-0.076 0.003-0.069 0.037-0.042 0.613-0.019 0.064-0.004 0.085-0.004 0.08 0.069 0.063-0.197 0.001-0.076 0.008 0.003 0.187 0.027 0.123 0.031 0.057-0.073 0.073-0.149-0.04 0.028-0.059 0.023-0.05 0.009-0.237-0.074-0.011-0.004-0.258 0.011-0.122-0.086-0.027-0.371-0.102-0.056 0.016-0.2 0.21-0.382-0.142-0.044-0.017 0.074-0.097 0.122-0.16 0.147-0.192 0.189-0.249 0.037-0.081-0.059-0.037-0.121-0.051-0.144-0.051 0.015-0.107 0.058-0.288 0.039-0.315 0.035-0.217 0.041-0.081 0.35-0.489 0.239-0.325 0.306-0.417 0.04-0.054 0.221-0.296 0.173-0.232 0.139-0.187 0.202-0.274-0.452-0.111-0.122-0.071-0.082-0.048 0.127-0.29 0.034-0.136 0.2-0.651 0.088-0.479 0.032-0.166 0.071-0.287 0.051-0.21 0.017-0.061 0.022-0.068 0.019-0.05 0.067-0.155 0.169-0.394 0.087-0.186 0.031-0.068 0.059-0.121 0.056-0.106 0.051-0.085 0.079-0.116 0.053-0.065 0.216-0.252 0.231-0.229 0.2-0.233 0.1-0.104 0.064-0.059 0.085-0.07 0.128-0.1 0.266-0.205 0.052-0.04 0.191-0.126 0.356-0.234 0.423-0.293 0.188-0.184 0.156-0.152-0.028-0.049-0.019-0.053-0.023-0.144-0.07-0.343-0.036-0.161-0.166 0.005-0.53 0.011-0.299 0.019-0.156-0.002-0.231-0.02-0.112-0.016-0.06-0.014-0.071-0.029-0.133-0.039-0.121-0.019-0.057-0.009-0.407-0.011-0.315-0.004-0.109-0.007-0.161-0.001-0.093 0.008-0.201 0.028-0.272 0.041-0.099 0.013-0.01-0.071-0.023-0.139-0.023-0.137-0.023-0.141-0.023-0.175 0.106-0.109-0.016-0.12-0.017-0.13-0.02-0.145-0.023-0.17-0.019-0.156 0.324 0.084 0.066-0.021 0.069-0.067 0.056 0.02 0.126 0.045 0.053-0.04 0.094-0.032 0.147 0.048 0.055-0.006 0.048 0.029 0.059-0.052 0.069-0.085 0.067-0.107 0.074-0.123 0.09-0.147 0.049-0.092-0.007-0.054-0.029-0.144-0.013-0.08-0.093-0.001-0.072-0.005-0.062-0.02-0.088-0.051-0.092-0.048-0.053-0.012-0.133-0.019-0.138-0.017-0.086-0.009-0.201-0.027-0.276-0.033-0.137-0.017-0.162-0.015-0.248-0.028-0.132-0.011-0.075-0.013-0.065-0.018-0.057-0.015-0.124-0.019-0.404-0.11-0.342-0.088-0.032-0.012-0.091-0.024-0.256-0.067-0.473-0.125-0.409-0.115-0.193-0.054-0.363-0.102-0.215-0.06-0.049-0.013-0.29-0.081-0.326-0.089-0.05-0.009-0.058-0.025-0.009-0.052 0.026-0.074 0.047-0.119 0.014-0.068-0.003-0.068 0.037-0.076 0.027-0.079 0.018-0.071 0.007-0.254 0.006-0.219-0.014-0.089-0.137-0.294-0.022-0.072-0.149-0.21-0.044-0.113-0.02-0.105-0.009-0.223-0.028-0.135-0.014-0.069-0.009-0.063-0.006-0.13-0.012-0.095-0.088-0.258 0.006-0.078-0.008-0.128 0.026-0.104 0.003-0.066-0.01-0.106-0.011-0.055-0.026-0.098-0.037-0.103-0.081-0.249-0.075-0.141-0.115 0.004-0.14 0.001-0.139-0.022-0.052-0.177-0.035-0.123-0.045-0.063-0.096-0.074-0.057-0.045-0.084-0.027-0.143 0.046-0.205 0.06-0.086-0.008-0.137-0.007-0.053 0.045-0.074 0.001-0.013-0.052-0.032-0.074-0.056-0.127-0.01-0.024-0.121-0.288-0.238-0.415-0.106-0.124-0.137-0.186-0.062-0.081-0.16-0.182-0.283-0.259-0.227-0.208-0.106-0.097-0.047-0.035-0.191-0.143-0.293-0.207-0.131-0.075-0.175-0.11-0.096-0.045 0.019-0.053-0.097-0.038-0.533-0.209-0.369-0.135-0.156-0.055-0.127-0.045-0.128-0.045-0.567-0.204-0.294-0.088-0.509-0.095-0.251 0.011-0.346 0.025-0.056 0.006-0.116 0.014-0.616 0.045-0.317 0.015-0.257-0.621-0.082-0.186-0.027-0.054-0.268-0.627-0.096-0.224-0.198-0.464-0.31-0.26-0.026-0.315 0.151-0.753 0.012-0.065 0.075-0.205 0.098-0.266 0.029-0.08 0.085-0.23 0.128-0.378 0.174-0.375 0.091-0.04 0.068-0.043 0.036-0.008 0.015-0.067 0.001-0.109 0.003-0.325 0.019-0.435 0.013-0.208 0.09-0.07 0.152-0.1 0.287-0.177 0.07-0.035 0.127-0.064 0.421-0.19 0.222-0.126 0.075-0.368 0.212-0.673 0.142-0.544 0.021-0.109 0.011-0.057 0.041-0.151 0.018-0.141 0.017-0.132 0.054-0.551 0.014-0.128-0.146 0.012-0.145 0.012-0.085-0.253L60.9 23.52l-0.32 0.112-0.114 0.053-0.308 0.149-0.293-0.282-0.206-0.183-0.125-0.102-0.126-0.128-0.087-0.044-0.116-0.075-0.098-0.035-0.058-0.027-0.06-0.053-0.107-0.063-0.118-0.074-0.068-0.012-0.173-0.109-0.099-0.062-0.141-0.113-0.275-0.154-0.195-0.16-0.11-0.104-0.141-0.16L57.5 21.83l-0.479-0.671 0.107-0.569 0.034-0.249 0.035-0.291 0.039-0.258 0.028-0.264 0.036-0.172 0.072-0.169-0.031-0.088-0.237 0.131-0.122 0.053-0.81 0.326-0.231 0.18 0.001-0.104L55.89 19.57l-0.063-0.107 0.155-0.511 0.434-0.705-0.058-0.112-0.285 0.298-0.188-0.208-0.572 0.744-0.524 0.74-0.746-0.346 0.009 0.086-0.464 0.524-0.057 0.035-0.394 0.448-0.095 0.093 0.35 0.144 0.99 0.832 1.273 0.185 0.028 0.054 0.037 0.049 0.018 0.092-0.011 0.069-0.014 0.062-0.021 0.135-0.067 0.063-0.099 0.055-0.096 0.086-0.127 0.138-0.058 0.074-0.072 0.032-0.064-0.007-0.059 0.015-0.068-0.006-0.07 0.004-0.07 0.027-0.133 0.097-0.051 0.05-0.072 0.039-0.08 0.032-0.063 0.054-0.045 0.066-0.076 0.151L54.2 23.19l-0.053 0.022-0.097 0.072-0.351-0.04-0.403-0.051-0.104-0.018-0.006-0.111-0.025-0.075-0.056-0.016-0.077-0.014-0.102-0.006-0.233-0.016h-0.066l-0.071 0.023-0.063 0.037L52.41 23.03l-0.241 0.012-0.072 0.074-0.059 0.014-0.048 0.004-0.041-0.058-0.068 0.039-0.076 0.403-0.054 0.306-0.37 0.096-0.116 0.034-0.136 0.04-0.048 0.056-0.023 0.188-0.03 0.238L51.02 24.57l0.035 0.24 0.022 0.151 0.009 0.087 0.049 0.06 0.006 0.087-0.151 0.119-0.08 0.033-0.462-0.031-0.076 0.047-0.067 0.046-0.048 0.04-0.252 0.217-0.318-0.254" fill="#ffffff" data-fill-palette-color="accent"></path></g></svg></g></svg></g><g></g></svg></g></svg></g><g><path d="M162.332 43.229A87.833 87.833 0 0 1 233.188 43.229L231.665 43.229A86.31 86.31 0 0 0 163.855 43.229L162.332 43.229M162.332 203.971A87.833 87.833 0 0 0 233.188 203.971L231.665 203.971A86.31 86.31 0 0 1 163.855 203.971L162.332 203.971" fill="#ffffff" stroke="transparent" data-fill-palette-color="tertiary"></path></g></svg></g><defs></defs></svg><rect width="395.52" height="247.2" fill="none" stroke="none" visibility="hidden"></rect></g></svg></g></svg>